solid OW200127_1
   facet normal -1.000000e+00 0.000000e+00 0.000000e+00
      outer loop
         vertex 5.000000e+00 -3.600000e+02 3.000000e-02
         vertex 5.000000e+00 1.800000e+02 3.000000e-02
         vertex 5.000000e+00 -3.600000e+02 0.000000e+00
      endloop
   endfacet
   facet normal -1.000000e+00 0.000000e+00 0.000000e+00
      outer loop
         vertex 5.000000e+00 -3.600000e+02 0.000000e+00
         vertex 5.000000e+00 1.800000e+02 3.000000e-02
         vertex 5.000000e+00 1.800000e+02 0.000000e+00
      endloop
   endfacet
   facet normal -0.000000e+00 -1.000000e+00 -0.000000e+00
      outer loop
         vertex 3.750000e+02 -3.600000e+02 3.000000e-02
         vertex 5.000000e+00 -3.600000e+02 3.000000e-02
         vertex 3.750000e+02 -3.600000e+02 0.000000e+00
      endloop
   endfacet
   facet normal 0.000000e+00 -1.000000e+00 0.000000e+00
      outer loop
         vertex 3.750000e+02 -3.600000e+02 0.000000e+00
         vertex 5.000000e+00 -3.600000e+02 3.000000e-02
         vertex 5.000000e+00 -3.600000e+02 0.000000e+00
      endloop
   endfacet
   facet normal 1.000000e+00 0.000000e+00 0.000000e+00
      outer loop
         vertex 3.750000e+02 1.800000e+02 3.000000e-02
         vertex 3.750000e+02 -3.600000e+02 3.000000e-02
         vertex 3.750000e+02 1.800000e+02 0.000000e+00
      endloop
   endfacet
   facet normal 1.000000e+00 0.000000e+00 0.000000e+00
      outer loop
         vertex 3.750000e+02 1.800000e+02 0.000000e+00
         vertex 3.750000e+02 -3.600000e+02 3.000000e-02
         vertex 3.750000e+02 -3.600000e+02 0.000000e+00
      endloop
   endfacet
   facet normal -0.000000e+00 -1.000000e+00 -0.000000e+00
      outer loop
         vertex 3.850000e+02 1.800000e+02 3.000000e-02
         vertex 3.750000e+02 1.800000e+02 3.000000e-02
         vertex 3.850000e+02 1.800000e+02 0.000000e+00
      endloop
   endfacet
   facet normal 0.000000e+00 -1.000000e+00 0.000000e+00
      outer loop
         vertex 3.850000e+02 1.800000e+02 0.000000e+00
         vertex 3.750000e+02 1.800000e+02 3.000000e-02
         vertex 3.750000e+02 1.800000e+02 0.000000e+00
      endloop
   endfacet
   facet normal -1.000000e+00 0.000000e+00 0.000000e+00
      outer loop
         vertex 3.850000e+02 -3.600000e+02 3.000000e-02
         vertex 3.850000e+02 1.800000e+02 3.000000e-02
         vertex 3.850000e+02 -3.600000e+02 0.000000e+00
      endloop
   endfacet
   facet normal -1.000000e+00 0.000000e+00 0.000000e+00
      outer loop
         vertex 3.850000e+02 -3.600000e+02 0.000000e+00
         vertex 3.850000e+02 1.800000e+02 3.000000e-02
         vertex 3.850000e+02 1.800000e+02 0.000000e+00
      endloop
   endfacet
   facet normal -0.000000e+00 -1.000000e+00 -0.000000e+00
      outer loop
         vertex 5.650000e+02 -3.600000e+02 3.000000e-02
         vertex 3.850000e+02 -3.600000e+02 3.000000e-02
         vertex 5.650000e+02 -3.600000e+02 0.000000e+00
      endloop
   endfacet
   facet normal 0.000000e+00 -1.000000e+00 0.000000e+00
      outer loop
         vertex 5.650000e+02 -3.600000e+02 0.000000e+00
         vertex 3.850000e+02 -3.600000e+02 3.000000e-02
         vertex 3.850000e+02 -3.600000e+02 0.000000e+00
      endloop
   endfacet
   facet normal 1.000000e+00 0.000000e+00 0.000000e+00
      outer loop
         vertex 5.650000e+02 3.600000e+02 3.000000e-02
         vertex 5.650000e+02 -3.600000e+02 3.000000e-02
         vertex 5.650000e+02 3.600000e+02 0.000000e+00
      endloop
   endfacet
   facet normal 1.000000e+00 0.000000e+00 0.000000e+00
      outer loop
         vertex 5.650000e+02 3.600000e+02 0.000000e+00
         vertex 5.650000e+02 -3.600000e+02 3.000000e-02
         vertex 5.650000e+02 -3.600000e+02 0.000000e+00
      endloop
   endfacet
   facet normal -0.000000e+00 1.000000e+00 0.000000e+00
      outer loop
         vertex 1.950000e+02 3.600000e+02 3.000000e-02
         vertex 5.650000e+02 3.600000e+02 3.000000e-02
         vertex 1.950000e+02 3.600000e+02 0.000000e+00
      endloop
   endfacet
   facet normal 0.000000e+00 1.000000e+00 0.000000e+00
      outer loop
         vertex 1.950000e+02 3.600000e+02 0.000000e+00
         vertex 5.650000e+02 3.600000e+02 3.000000e-02
         vertex 5.650000e+02 3.600000e+02 0.000000e+00
      endloop
   endfacet
   facet normal -1.000000e+00 0.000000e+00 0.000000e+00
      outer loop
         vertex 1.950000e+02 -1.800000e+02 3.000000e-02
         vertex 1.950000e+02 3.600000e+02 3.000000e-02
         vertex 1.950000e+02 -1.800000e+02 0.000000e+00
      endloop
   endfacet
   facet normal -1.000000e+00 0.000000e+00 0.000000e+00
      outer loop
         vertex 1.950000e+02 -1.800000e+02 0.000000e+00
         vertex 1.950000e+02 3.600000e+02 3.000000e-02
         vertex 1.950000e+02 3.600000e+02 0.000000e+00
      endloop
   endfacet
   facet normal -0.000000e+00 1.000000e+00 0.000000e+00
      outer loop
         vertex 1.850000e+02 -1.800000e+02 3.000000e-02
         vertex 1.950000e+02 -1.800000e+02 3.000000e-02
         vertex 1.850000e+02 -1.800000e+02 0.000000e+00
      endloop
   endfacet
   facet normal 0.000000e+00 1.000000e+00 0.000000e+00
      outer loop
         vertex 1.850000e+02 -1.800000e+02 0.000000e+00
         vertex 1.950000e+02 -1.800000e+02 3.000000e-02
         vertex 1.950000e+02 -1.800000e+02 0.000000e+00
      endloop
   endfacet
   facet normal 1.000000e+00 0.000000e+00 0.000000e+00
      outer loop
         vertex 1.850000e+02 3.600000e+02 3.000000e-02
         vertex 1.850000e+02 -1.800000e+02 3.000000e-02
         vertex 1.850000e+02 3.600000e+02 0.000000e+00
      endloop
   endfacet
   facet normal 1.000000e+00 0.000000e+00 0.000000e+00
      outer loop
         vertex 1.850000e+02 3.600000e+02 0.000000e+00
         vertex 1.850000e+02 -1.800000e+02 3.000000e-02
         vertex 1.850000e+02 -1.800000e+02 0.000000e+00
      endloop
   endfacet
   facet normal -0.000000e+00 1.000000e+00 0.000000e+00
      outer loop
         vertex 5.000000e+00 3.600000e+02 3.000000e-02
         vertex 1.850000e+02 3.600000e+02 3.000000e-02
         vertex 5.000000e+00 3.600000e+02 0.000000e+00
      endloop
   endfacet
   facet normal 0.000000e+00 1.000000e+00 0.000000e+00
      outer loop
         vertex 5.000000e+00 3.600000e+02 0.000000e+00
         vertex 1.850000e+02 3.600000e+02 3.000000e-02
         vertex 1.850000e+02 3.600000e+02 0.000000e+00
      endloop
   endfacet
   facet normal -1.000000e+00 0.000000e+00 0.000000e+00
      outer loop
         vertex 5.000000e+00 2.800000e+02 3.000000e-02
         vertex 5.000000e+00 3.600000e+02 3.000000e-02
         vertex 5.000000e+00 2.800000e+02 0.000000e+00
      endloop
   endfacet
   facet normal -1.000000e+00 0.000000e+00 0.000000e+00
      outer loop
         vertex 5.000000e+00 2.800000e+02 0.000000e+00
         vertex 5.000000e+00 3.600000e+02 3.000000e-02
         vertex 5.000000e+00 3.600000e+02 0.000000e+00
      endloop
   endfacet
   facet normal -0.000000e+00 -1.000000e+00 -0.000000e+00
      outer loop
         vertex 1.050000e+02 2.800000e+02 3.000000e-02
         vertex 5.000000e+00 2.800000e+02 3.000000e-02
         vertex 1.050000e+02 2.800000e+02 0.000000e+00
      endloop
   endfacet
   facet normal 0.000000e+00 -1.000000e+00 0.000000e+00
      outer loop
         vertex 1.050000e+02 2.800000e+02 0.000000e+00
         vertex 5.000000e+00 2.800000e+02 3.000000e-02
         vertex 5.000000e+00 2.800000e+02 0.000000e+00
      endloop
   endfacet
   facet normal -1.000000e+00 0.000000e+00 0.000000e+00
      outer loop
         vertex 1.050000e+02 -2.600000e+02 3.000000e-02
         vertex 1.050000e+02 2.800000e+02 3.000000e-02
         vertex 1.050000e+02 -2.600000e+02 0.000000e+00
      endloop
   endfacet
   facet normal -1.000000e+00 0.000000e+00 0.000000e+00
      outer loop
         vertex 1.050000e+02 -2.600000e+02 0.000000e+00
         vertex 1.050000e+02 2.800000e+02 3.000000e-02
         vertex 1.050000e+02 2.800000e+02 0.000000e+00
      endloop
   endfacet
   facet normal -0.000000e+00 -1.000000e+00 -0.000000e+00
      outer loop
         vertex 2.750000e+02 -2.600000e+02 3.000000e-02
         vertex 1.050000e+02 -2.600000e+02 3.000000e-02
         vertex 2.750000e+02 -2.600000e+02 0.000000e+00
      endloop
   endfacet
   facet normal 0.000000e+00 -1.000000e+00 0.000000e+00
      outer loop
         vertex 2.750000e+02 -2.600000e+02 0.000000e+00
         vertex 1.050000e+02 -2.600000e+02 3.000000e-02
         vertex 1.050000e+02 -2.600000e+02 0.000000e+00
      endloop
   endfacet
   facet normal 1.000000e+00 0.000000e+00 0.000000e+00
      outer loop
         vertex 2.750000e+02 2.800000e+02 3.000000e-02
         vertex 2.750000e+02 -2.600000e+02 3.000000e-02
         vertex 2.750000e+02 2.800000e+02 0.000000e+00
      endloop
   endfacet
   facet normal 1.000000e+00 0.000000e+00 0.000000e+00
      outer loop
         vertex 2.750000e+02 2.800000e+02 0.000000e+00
         vertex 2.750000e+02 -2.600000e+02 3.000000e-02
         vertex 2.750000e+02 -2.600000e+02 0.000000e+00
      endloop
   endfacet
   facet normal -0.000000e+00 -1.000000e+00 -0.000000e+00
      outer loop
         vertex 4.850000e+02 2.800000e+02 3.000000e-02
         vertex 2.750000e+02 2.800000e+02 3.000000e-02
         vertex 4.850000e+02 2.800000e+02 0.000000e+00
      endloop
   endfacet
   facet normal 0.000000e+00 -1.000000e+00 0.000000e+00
      outer loop
         vertex 4.850000e+02 2.800000e+02 0.000000e+00
         vertex 2.750000e+02 2.800000e+02 3.000000e-02
         vertex 2.750000e+02 2.800000e+02 0.000000e+00
      endloop
   endfacet
   facet normal -1.000000e+00 0.000000e+00 0.000000e+00
      outer loop
         vertex 4.850000e+02 -2.800000e+02 3.000000e-02
         vertex 4.850000e+02 2.800000e+02 3.000000e-02
         vertex 4.850000e+02 -2.800000e+02 0.000000e+00
      endloop
   endfacet
   facet normal -1.000000e+00 0.000000e+00 0.000000e+00
      outer loop
         vertex 4.850000e+02 -2.800000e+02 0.000000e+00
         vertex 4.850000e+02 2.800000e+02 3.000000e-02
         vertex 4.850000e+02 2.800000e+02 0.000000e+00
      endloop
   endfacet
   facet normal -0.000000e+00 1.000000e+00 0.000000e+00
      outer loop
         vertex 4.650000e+02 -2.800000e+02 3.000000e-02
         vertex 4.850000e+02 -2.800000e+02 3.000000e-02
         vertex 4.650000e+02 -2.800000e+02 0.000000e+00
      endloop
   endfacet
   facet normal 0.000000e+00 1.000000e+00 0.000000e+00
      outer loop
         vertex 4.650000e+02 -2.800000e+02 0.000000e+00
         vertex 4.850000e+02 -2.800000e+02 3.000000e-02
         vertex 4.850000e+02 -2.800000e+02 0.000000e+00
      endloop
   endfacet
   facet normal 1.000000e+00 0.000000e+00 0.000000e+00
      outer loop
         vertex 4.650000e+02 2.600000e+02 3.000000e-02
         vertex 4.650000e+02 -2.800000e+02 3.000000e-02
         vertex 4.650000e+02 2.600000e+02 0.000000e+00
      endloop
   endfacet
   facet normal 1.000000e+00 0.000000e+00 0.000000e+00
      outer loop
         vertex 4.650000e+02 2.600000e+02 0.000000e+00
         vertex 4.650000e+02 -2.800000e+02 3.000000e-02
         vertex 4.650000e+02 -2.800000e+02 0.000000e+00
      endloop
   endfacet
   facet normal -0.000000e+00 1.000000e+00 0.000000e+00
      outer loop
         vertex 2.950000e+02 2.600000e+02 3.000000e-02
         vertex 4.650000e+02 2.600000e+02 3.000000e-02
         vertex 2.950000e+02 2.600000e+02 0.000000e+00
      endloop
   endfacet
   facet normal 0.000000e+00 1.000000e+00 0.000000e+00
      outer loop
         vertex 2.950000e+02 2.600000e+02 0.000000e+00
         vertex 4.650000e+02 2.600000e+02 3.000000e-02
         vertex 4.650000e+02 2.600000e+02 0.000000e+00
      endloop
   endfacet
   facet normal -1.000000e+00 0.000000e+00 0.000000e+00
      outer loop
         vertex 2.950000e+02 -2.800000e+02 3.000000e-02
         vertex 2.950000e+02 2.600000e+02 3.000000e-02
         vertex 2.950000e+02 -2.800000e+02 0.000000e+00
      endloop
   endfacet
   facet normal -1.000000e+00 0.000000e+00 0.000000e+00
      outer loop
         vertex 2.950000e+02 -2.800000e+02 0.000000e+00
         vertex 2.950000e+02 2.600000e+02 3.000000e-02
         vertex 2.950000e+02 2.600000e+02 0.000000e+00
      endloop
   endfacet
   facet normal -0.000000e+00 1.000000e+00 0.000000e+00
      outer loop
         vertex 8.500000e+01 -2.800000e+02 3.000000e-02
         vertex 2.950000e+02 -2.800000e+02 3.000000e-02
         vertex 8.500000e+01 -2.800000e+02 0.000000e+00
      endloop
   endfacet
   facet normal 0.000000e+00 1.000000e+00 0.000000e+00
      outer loop
         vertex 8.500000e+01 -2.800000e+02 0.000000e+00
         vertex 2.950000e+02 -2.800000e+02 3.000000e-02
         vertex 2.950000e+02 -2.800000e+02 0.000000e+00
      endloop
   endfacet
   facet normal 1.000000e+00 0.000000e+00 0.000000e+00
      outer loop
         vertex 8.500000e+01 2.600000e+02 3.000000e-02
         vertex 8.500000e+01 -2.800000e+02 3.000000e-02
         vertex 8.500000e+01 2.600000e+02 0.000000e+00
      endloop
   endfacet
   facet normal 1.000000e+00 0.000000e+00 0.000000e+00
      outer loop
         vertex 8.500000e+01 2.600000e+02 0.000000e+00
         vertex 8.500000e+01 -2.800000e+02 3.000000e-02
         vertex 8.500000e+01 -2.800000e+02 0.000000e+00
      endloop
   endfacet
   facet normal -0.000000e+00 1.000000e+00 0.000000e+00
      outer loop
         vertex -8.500000e+01 2.600000e+02 3.000000e-02
         vertex 8.500000e+01 2.600000e+02 3.000000e-02
         vertex -8.500000e+01 2.600000e+02 0.000000e+00
      endloop
   endfacet
   facet normal 0.000000e+00 1.000000e+00 0.000000e+00
      outer loop
         vertex -8.500000e+01 2.600000e+02 0.000000e+00
         vertex 8.500000e+01 2.600000e+02 3.000000e-02
         vertex 8.500000e+01 2.600000e+02 0.000000e+00
      endloop
   endfacet
   facet normal -1.000000e+00 0.000000e+00 0.000000e+00
      outer loop
         vertex -8.500000e+01 -2.800000e+02 3.000000e-02
         vertex -8.500000e+01 2.600000e+02 3.000000e-02
         vertex -8.500000e+01 -2.800000e+02 0.000000e+00
      endloop
   endfacet
   facet normal -1.000000e+00 0.000000e+00 0.000000e+00
      outer loop
         vertex -8.500000e+01 -2.800000e+02 0.000000e+00
         vertex -8.500000e+01 2.600000e+02 3.000000e-02
         vertex -8.500000e+01 2.600000e+02 0.000000e+00
      endloop
   endfacet
   facet normal -0.000000e+00 1.000000e+00 0.000000e+00
      outer loop
         vertex -2.950000e+02 -2.800000e+02 3.000000e-02
         vertex -8.500000e+01 -2.800000e+02 3.000000e-02
         vertex -2.950000e+02 -2.800000e+02 0.000000e+00
      endloop
   endfacet
   facet normal 0.000000e+00 1.000000e+00 0.000000e+00
      outer loop
         vertex -2.950000e+02 -2.800000e+02 0.000000e+00
         vertex -8.500000e+01 -2.800000e+02 3.000000e-02
         vertex -8.500000e+01 -2.800000e+02 0.000000e+00
      endloop
   endfacet
   facet normal 1.000000e+00 0.000000e+00 0.000000e+00
      outer loop
         vertex -2.950000e+02 2.600000e+02 3.000000e-02
         vertex -2.950000e+02 -2.800000e+02 3.000000e-02
         vertex -2.950000e+02 2.600000e+02 0.000000e+00
      endloop
   endfacet
   facet normal 1.000000e+00 0.000000e+00 0.000000e+00
      outer loop
         vertex -2.950000e+02 2.600000e+02 0.000000e+00
         vertex -2.950000e+02 -2.800000e+02 3.000000e-02
         vertex -2.950000e+02 -2.800000e+02 0.000000e+00
      endloop
   endfacet
   facet normal -0.000000e+00 1.000000e+00 0.000000e+00
      outer loop
         vertex -4.650000e+02 2.600000e+02 3.000000e-02
         vertex -2.950000e+02 2.600000e+02 3.000000e-02
         vertex -4.650000e+02 2.600000e+02 0.000000e+00
      endloop
   endfacet
   facet normal 0.000000e+00 1.000000e+00 0.000000e+00
      outer loop
         vertex -4.650000e+02 2.600000e+02 0.000000e+00
         vertex -2.950000e+02 2.600000e+02 3.000000e-02
         vertex -2.950000e+02 2.600000e+02 0.000000e+00
      endloop
   endfacet
   facet normal -1.000000e+00 0.000000e+00 0.000000e+00
      outer loop
         vertex -4.650000e+02 -2.800000e+02 3.000000e-02
         vertex -4.650000e+02 2.600000e+02 3.000000e-02
         vertex -4.650000e+02 -2.800000e+02 0.000000e+00
      endloop
   endfacet
   facet normal -1.000000e+00 0.000000e+00 0.000000e+00
      outer loop
         vertex -4.650000e+02 -2.800000e+02 0.000000e+00
         vertex -4.650000e+02 2.600000e+02 3.000000e-02
         vertex -4.650000e+02 2.600000e+02 0.000000e+00
      endloop
   endfacet
   facet normal -0.000000e+00 1.000000e+00 0.000000e+00
      outer loop
         vertex -4.850000e+02 -2.800000e+02 3.000000e-02
         vertex -4.650000e+02 -2.800000e+02 3.000000e-02
         vertex -4.850000e+02 -2.800000e+02 0.000000e+00
      endloop
   endfacet
   facet normal 0.000000e+00 1.000000e+00 0.000000e+00
      outer loop
         vertex -4.850000e+02 -2.800000e+02 0.000000e+00
         vertex -4.650000e+02 -2.800000e+02 3.000000e-02
         vertex -4.650000e+02 -2.800000e+02 0.000000e+00
      endloop
   endfacet
   facet normal 1.000000e+00 0.000000e+00 0.000000e+00
      outer loop
         vertex -4.850000e+02 2.800000e+02 3.000000e-02
         vertex -4.850000e+02 -2.800000e+02 3.000000e-02
         vertex -4.850000e+02 2.800000e+02 0.000000e+00
      endloop
   endfacet
   facet normal 1.000000e+00 0.000000e+00 0.000000e+00
      outer loop
         vertex -4.850000e+02 2.800000e+02 0.000000e+00
         vertex -4.850000e+02 -2.800000e+02 3.000000e-02
         vertex -4.850000e+02 -2.800000e+02 0.000000e+00
      endloop
   endfacet
   facet normal -0.000000e+00 -1.000000e+00 -0.000000e+00
      outer loop
         vertex -2.750000e+02 2.800000e+02 3.000000e-02
         vertex -4.850000e+02 2.800000e+02 3.000000e-02
         vertex -2.750000e+02 2.800000e+02 0.000000e+00
      endloop
   endfacet
   facet normal 0.000000e+00 -1.000000e+00 0.000000e+00
      outer loop
         vertex -2.750000e+02 2.800000e+02 0.000000e+00
         vertex -4.850000e+02 2.800000e+02 3.000000e-02
         vertex -4.850000e+02 2.800000e+02 0.000000e+00
      endloop
   endfacet
   facet normal -1.000000e+00 0.000000e+00 0.000000e+00
      outer loop
         vertex -2.750000e+02 -2.600000e+02 3.000000e-02
         vertex -2.750000e+02 2.800000e+02 3.000000e-02
         vertex -2.750000e+02 -2.600000e+02 0.000000e+00
      endloop
   endfacet
   facet normal -1.000000e+00 0.000000e+00 0.000000e+00
      outer loop
         vertex -2.750000e+02 -2.600000e+02 0.000000e+00
         vertex -2.750000e+02 2.800000e+02 3.000000e-02
         vertex -2.750000e+02 2.800000e+02 0.000000e+00
      endloop
   endfacet
   facet normal -0.000000e+00 -1.000000e+00 -0.000000e+00
      outer loop
         vertex -1.050000e+02 -2.600000e+02 3.000000e-02
         vertex -2.750000e+02 -2.600000e+02 3.000000e-02
         vertex -1.050000e+02 -2.600000e+02 0.000000e+00
      endloop
   endfacet
   facet normal 0.000000e+00 -1.000000e+00 0.000000e+00
      outer loop
         vertex -1.050000e+02 -2.600000e+02 0.000000e+00
         vertex -2.750000e+02 -2.600000e+02 3.000000e-02
         vertex -2.750000e+02 -2.600000e+02 0.000000e+00
      endloop
   endfacet
   facet normal 1.000000e+00 0.000000e+00 0.000000e+00
      outer loop
         vertex -1.050000e+02 2.800000e+02 3.000000e-02
         vertex -1.050000e+02 -2.600000e+02 3.000000e-02
         vertex -1.050000e+02 2.800000e+02 0.000000e+00
      endloop
   endfacet
   facet normal 1.000000e+00 0.000000e+00 0.000000e+00
      outer loop
         vertex -1.050000e+02 2.800000e+02 0.000000e+00
         vertex -1.050000e+02 -2.600000e+02 3.000000e-02
         vertex -1.050000e+02 -2.600000e+02 0.000000e+00
      endloop
   endfacet
   facet normal -0.000000e+00 -1.000000e+00 -0.000000e+00
      outer loop
         vertex -5.000000e+00 2.800000e+02 3.000000e-02
         vertex -1.050000e+02 2.800000e+02 3.000000e-02
         vertex -5.000000e+00 2.800000e+02 0.000000e+00
      endloop
   endfacet
   facet normal 0.000000e+00 -1.000000e+00 0.000000e+00
      outer loop
         vertex -5.000000e+00 2.800000e+02 0.000000e+00
         vertex -1.050000e+02 2.800000e+02 3.000000e-02
         vertex -1.050000e+02 2.800000e+02 0.000000e+00
      endloop
   endfacet
   facet normal 1.000000e+00 0.000000e+00 0.000000e+00
      outer loop
         vertex -5.000000e+00 3.600000e+02 3.000000e-02
         vertex -5.000000e+00 2.800000e+02 3.000000e-02
         vertex -5.000000e+00 3.600000e+02 0.000000e+00
      endloop
   endfacet
   facet normal 1.000000e+00 0.000000e+00 0.000000e+00
      outer loop
         vertex -5.000000e+00 3.600000e+02 0.000000e+00
         vertex -5.000000e+00 2.800000e+02 3.000000e-02
         vertex -5.000000e+00 2.800000e+02 0.000000e+00
      endloop
   endfacet
   facet normal -0.000000e+00 1.000000e+00 0.000000e+00
      outer loop
         vertex -1.850000e+02 3.600000e+02 3.000000e-02
         vertex -5.000000e+00 3.600000e+02 3.000000e-02
         vertex -1.850000e+02 3.600000e+02 0.000000e+00
      endloop
   endfacet
   facet normal 0.000000e+00 1.000000e+00 0.000000e+00
      outer loop
         vertex -1.850000e+02 3.600000e+02 0.000000e+00
         vertex -5.000000e+00 3.600000e+02 3.000000e-02
         vertex -5.000000e+00 3.600000e+02 0.000000e+00
      endloop
   endfacet
   facet normal -1.000000e+00 0.000000e+00 0.000000e+00
      outer loop
         vertex -1.850000e+02 -1.800000e+02 3.000000e-02
         vertex -1.850000e+02 3.600000e+02 3.000000e-02
         vertex -1.850000e+02 -1.800000e+02 0.000000e+00
      endloop
   endfacet
   facet normal -1.000000e+00 0.000000e+00 0.000000e+00
      outer loop
         vertex -1.850000e+02 -1.800000e+02 0.000000e+00
         vertex -1.850000e+02 3.600000e+02 3.000000e-02
         vertex -1.850000e+02 3.600000e+02 0.000000e+00
      endloop
   endfacet
   facet normal -0.000000e+00 1.000000e+00 0.000000e+00
      outer loop
         vertex -1.950000e+02 -1.800000e+02 3.000000e-02
         vertex -1.850000e+02 -1.800000e+02 3.000000e-02
         vertex -1.950000e+02 -1.800000e+02 0.000000e+00
      endloop
   endfacet
   facet normal 0.000000e+00 1.000000e+00 0.000000e+00
      outer loop
         vertex -1.950000e+02 -1.800000e+02 0.000000e+00
         vertex -1.850000e+02 -1.800000e+02 3.000000e-02
         vertex -1.850000e+02 -1.800000e+02 0.000000e+00
      endloop
   endfacet
   facet normal 1.000000e+00 0.000000e+00 0.000000e+00
      outer loop
         vertex -1.950000e+02 3.600000e+02 3.000000e-02
         vertex -1.950000e+02 -1.800000e+02 3.000000e-02
         vertex -1.950000e+02 3.600000e+02 0.000000e+00
      endloop
   endfacet
   facet normal 1.000000e+00 0.000000e+00 0.000000e+00
      outer loop
         vertex -1.950000e+02 3.600000e+02 0.000000e+00
         vertex -1.950000e+02 -1.800000e+02 3.000000e-02
         vertex -1.950000e+02 -1.800000e+02 0.000000e+00
      endloop
   endfacet
   facet normal -0.000000e+00 1.000000e+00 0.000000e+00
      outer loop
         vertex -5.650000e+02 3.600000e+02 3.000000e-02
         vertex -1.950000e+02 3.600000e+02 3.000000e-02
         vertex -5.650000e+02 3.600000e+02 0.000000e+00
      endloop
   endfacet
   facet normal 0.000000e+00 1.000000e+00 0.000000e+00
      outer loop
         vertex -5.650000e+02 3.600000e+02 0.000000e+00
         vertex -1.950000e+02 3.600000e+02 3.000000e-02
         vertex -1.950000e+02 3.600000e+02 0.000000e+00
      endloop
   endfacet
   facet normal -1.000000e+00 0.000000e+00 0.000000e+00
      outer loop
         vertex -5.650000e+02 -3.600000e+02 3.000000e-02
         vertex -5.650000e+02 3.600000e+02 3.000000e-02
         vertex -5.650000e+02 -3.600000e+02 0.000000e+00
      endloop
   endfacet
   facet normal -1.000000e+00 0.000000e+00 0.000000e+00
      outer loop
         vertex -5.650000e+02 -3.600000e+02 0.000000e+00
         vertex -5.650000e+02 3.600000e+02 3.000000e-02
         vertex -5.650000e+02 3.600000e+02 0.000000e+00
      endloop
   endfacet
   facet normal -0.000000e+00 -1.000000e+00 -0.000000e+00
      outer loop
         vertex -3.850000e+02 -3.600000e+02 3.000000e-02
         vertex -5.650000e+02 -3.600000e+02 3.000000e-02
         vertex -3.850000e+02 -3.600000e+02 0.000000e+00
      endloop
   endfacet
   facet normal 0.000000e+00 -1.000000e+00 0.000000e+00
      outer loop
         vertex -3.850000e+02 -3.600000e+02 0.000000e+00
         vertex -5.650000e+02 -3.600000e+02 3.000000e-02
         vertex -5.650000e+02 -3.600000e+02 0.000000e+00
      endloop
   endfacet
   facet normal 1.000000e+00 0.000000e+00 0.000000e+00
      outer loop
         vertex -3.850000e+02 1.800000e+02 3.000000e-02
         vertex -3.850000e+02 -3.600000e+02 3.000000e-02
         vertex -3.850000e+02 1.800000e+02 0.000000e+00
      endloop
   endfacet
   facet normal 1.000000e+00 0.000000e+00 0.000000e+00
      outer loop
         vertex -3.850000e+02 1.800000e+02 0.000000e+00
         vertex -3.850000e+02 -3.600000e+02 3.000000e-02
         vertex -3.850000e+02 -3.600000e+02 0.000000e+00
      endloop
   endfacet
   facet normal -0.000000e+00 -1.000000e+00 -0.000000e+00
      outer loop
         vertex -3.750000e+02 1.800000e+02 3.000000e-02
         vertex -3.850000e+02 1.800000e+02 3.000000e-02
         vertex -3.750000e+02 1.800000e+02 0.000000e+00
      endloop
   endfacet
   facet normal 0.000000e+00 -1.000000e+00 0.000000e+00
      outer loop
         vertex -3.750000e+02 1.800000e+02 0.000000e+00
         vertex -3.850000e+02 1.800000e+02 3.000000e-02
         vertex -3.850000e+02 1.800000e+02 0.000000e+00
      endloop
   endfacet
   facet normal -1.000000e+00 0.000000e+00 0.000000e+00
      outer loop
         vertex -3.750000e+02 -3.600000e+02 3.000000e-02
         vertex -3.750000e+02 1.800000e+02 3.000000e-02
         vertex -3.750000e+02 -3.600000e+02 0.000000e+00
      endloop
   endfacet
   facet normal -1.000000e+00 0.000000e+00 0.000000e+00
      outer loop
         vertex -3.750000e+02 -3.600000e+02 0.000000e+00
         vertex -3.750000e+02 1.800000e+02 3.000000e-02
         vertex -3.750000e+02 1.800000e+02 0.000000e+00
      endloop
   endfacet
   facet normal -0.000000e+00 -1.000000e+00 -0.000000e+00
      outer loop
         vertex -5.000000e+00 -3.600000e+02 3.000000e-02
         vertex -3.750000e+02 -3.600000e+02 3.000000e-02
         vertex -5.000000e+00 -3.600000e+02 0.000000e+00
      endloop
   endfacet
   facet normal 0.000000e+00 -1.000000e+00 0.000000e+00
      outer loop
         vertex -5.000000e+00 -3.600000e+02 0.000000e+00
         vertex -3.750000e+02 -3.600000e+02 3.000000e-02
         vertex -3.750000e+02 -3.600000e+02 0.000000e+00
      endloop
   endfacet
   facet normal 1.000000e+00 0.000000e+00 0.000000e+00
      outer loop
         vertex -5.000000e+00 1.800000e+02 3.000000e-02
         vertex -5.000000e+00 -3.600000e+02 3.000000e-02
         vertex -5.000000e+00 1.800000e+02 0.000000e+00
      endloop
   endfacet
   facet normal 1.000000e+00 0.000000e+00 0.000000e+00
      outer loop
         vertex -5.000000e+00 1.800000e+02 0.000000e+00
         vertex -5.000000e+00 -3.600000e+02 3.000000e-02
         vertex -5.000000e+00 -3.600000e+02 0.000000e+00
      endloop
   endfacet
   facet normal -0.000000e+00 -1.000000e+00 -0.000000e+00
      outer loop
         vertex 5.000000e+00 1.800000e+02 3.000000e-02
         vertex -5.000000e+00 1.800000e+02 3.000000e-02
         vertex 5.000000e+00 1.800000e+02 0.000000e+00
      endloop
   endfacet
   facet normal 0.000000e+00 -1.000000e+00 0.000000e+00
      outer loop
         vertex 5.000000e+00 1.800000e+02 0.000000e+00
         vertex -5.000000e+00 1.800000e+02 3.000000e-02
         vertex -5.000000e+00 1.800000e+02 0.000000e+00
      endloop
   endfacet
   facet normal -0.000000e+00 0.000000e+00 1.000000e+00
      outer loop
         vertex 5.000000e+00 3.600000e+02 3.000000e-02
         vertex 5.000000e+00 2.800000e+02 3.000000e-02
         vertex 1.850000e+02 3.600000e+02 3.000000e-02
      endloop
   endfacet
   facet normal 0.000000e+00 0.000000e+00 1.000000e+00
      outer loop
         vertex 1.850000e+02 3.600000e+02 3.000000e-02
         vertex 5.000000e+00 2.800000e+02 3.000000e-02
         vertex 1.050000e+02 2.800000e+02 3.000000e-02
      endloop
   endfacet
   facet normal 0.000000e+00 0.000000e+00 1.000000e+00
      outer loop
         vertex 1.850000e+02 3.600000e+02 3.000000e-02
         vertex 1.050000e+02 2.800000e+02 3.000000e-02
         vertex 1.850000e+02 -1.800000e+02 3.000000e-02
      endloop
   endfacet
   facet normal 0.000000e+00 0.000000e+00 1.000000e+00
      outer loop
         vertex 1.850000e+02 -1.800000e+02 3.000000e-02
         vertex 1.050000e+02 2.800000e+02 3.000000e-02
         vertex 1.050000e+02 -2.600000e+02 3.000000e-02
      endloop
   endfacet
   facet normal -0.000000e+00 0.000000e+00 1.000000e+00
      outer loop
         vertex 1.850000e+02 -1.800000e+02 3.000000e-02
         vertex 1.050000e+02 -2.600000e+02 3.000000e-02
         vertex 1.950000e+02 -1.800000e+02 3.000000e-02
      endloop
   endfacet
   facet normal 0.000000e+00 0.000000e+00 1.000000e+00
      outer loop
         vertex 1.950000e+02 -1.800000e+02 3.000000e-02
         vertex 1.050000e+02 -2.600000e+02 3.000000e-02
         vertex 2.750000e+02 -2.600000e+02 3.000000e-02
      endloop
   endfacet
   facet normal -0.000000e+00 0.000000e+00 1.000000e+00
      outer loop
         vertex 1.950000e+02 -1.800000e+02 3.000000e-02
         vertex 2.750000e+02 -2.600000e+02 3.000000e-02
         vertex 1.950000e+02 3.600000e+02 3.000000e-02
      endloop
   endfacet
   facet normal 0.000000e+00 0.000000e+00 1.000000e+00
      outer loop
         vertex 1.950000e+02 3.600000e+02 3.000000e-02
         vertex 2.750000e+02 -2.600000e+02 3.000000e-02
         vertex 2.750000e+02 2.800000e+02 3.000000e-02
      endloop
   endfacet
   facet normal -0.000000e+00 0.000000e+00 1.000000e+00
      outer loop
         vertex 1.950000e+02 3.600000e+02 3.000000e-02
         vertex 2.750000e+02 2.800000e+02 3.000000e-02
         vertex 5.650000e+02 3.600000e+02 3.000000e-02
      endloop
   endfacet
   facet normal 0.000000e+00 0.000000e+00 1.000000e+00
      outer loop
         vertex 5.650000e+02 3.600000e+02 3.000000e-02
         vertex 2.750000e+02 2.800000e+02 3.000000e-02
         vertex 4.850000e+02 2.800000e+02 3.000000e-02
      endloop
   endfacet
   facet normal 0.000000e+00 0.000000e+00 1.000000e+00
      outer loop
         vertex 5.650000e+02 3.600000e+02 3.000000e-02
         vertex 4.850000e+02 2.800000e+02 3.000000e-02
         vertex 5.650000e+02 -3.600000e+02 3.000000e-02
      endloop
   endfacet
   facet normal 0.000000e+00 0.000000e+00 1.000000e+00
      outer loop
         vertex 5.650000e+02 -3.600000e+02 3.000000e-02
         vertex 4.850000e+02 2.800000e+02 3.000000e-02
         vertex 4.850000e+02 -2.800000e+02 3.000000e-02
      endloop
   endfacet
   facet normal 0.000000e+00 0.000000e+00 1.000000e+00
      outer loop
         vertex 5.650000e+02 -3.600000e+02 3.000000e-02
         vertex 4.850000e+02 -2.800000e+02 3.000000e-02
         vertex 3.850000e+02 -3.600000e+02 3.000000e-02
      endloop
   endfacet
   facet normal 0.000000e+00 0.000000e+00 1.000000e+00
      outer loop
         vertex 3.850000e+02 -3.600000e+02 3.000000e-02
         vertex 4.850000e+02 -2.800000e+02 3.000000e-02
         vertex 4.650000e+02 -2.800000e+02 3.000000e-02
      endloop
   endfacet
   facet normal 0.000000e+00 0.000000e+00 1.000000e+00
      outer loop
         vertex 3.850000e+02 -3.600000e+02 3.000000e-02
         vertex 4.650000e+02 -2.800000e+02 3.000000e-02
         vertex 3.850000e+02 1.800000e+02 3.000000e-02
      endloop
   endfacet
   facet normal -0.000000e+00 0.000000e+00 1.000000e+00
      outer loop
         vertex 3.850000e+02 1.800000e+02 3.000000e-02
         vertex 4.650000e+02 -2.800000e+02 3.000000e-02
         vertex 4.650000e+02 2.600000e+02 3.000000e-02
      endloop
   endfacet
   facet normal 0.000000e+00 -0.000000e+00 1.000000e+00
      outer loop
         vertex 3.850000e+02 1.800000e+02 3.000000e-02
         vertex 4.650000e+02 2.600000e+02 3.000000e-02
         vertex 3.750000e+02 1.800000e+02 3.000000e-02
      endloop
   endfacet
   facet normal 0.000000e+00 -0.000000e+00 1.000000e+00
      outer loop
         vertex 3.750000e+02 1.800000e+02 3.000000e-02
         vertex 4.650000e+02 2.600000e+02 3.000000e-02
         vertex 2.950000e+02 2.600000e+02 3.000000e-02
      endloop
   endfacet
   facet normal 0.000000e+00 0.000000e+00 1.000000e+00
      outer loop
         vertex 3.750000e+02 1.800000e+02 3.000000e-02
         vertex 2.950000e+02 2.600000e+02 3.000000e-02
         vertex 3.750000e+02 -3.600000e+02 3.000000e-02
      endloop
   endfacet
   facet normal 0.000000e+00 0.000000e+00 1.000000e+00
      outer loop
         vertex 3.750000e+02 -3.600000e+02 3.000000e-02
         vertex 2.950000e+02 2.600000e+02 3.000000e-02
         vertex 2.950000e+02 -2.800000e+02 3.000000e-02
      endloop
   endfacet
   facet normal 0.000000e+00 0.000000e+00 1.000000e+00
      outer loop
         vertex 3.750000e+02 -3.600000e+02 3.000000e-02
         vertex 2.950000e+02 -2.800000e+02 3.000000e-02
         vertex 5.000000e+00 -3.600000e+02 3.000000e-02
      endloop
   endfacet
   facet normal 0.000000e+00 0.000000e+00 1.000000e+00
      outer loop
         vertex 5.000000e+00 -3.600000e+02 3.000000e-02
         vertex 2.950000e+02 -2.800000e+02 3.000000e-02
         vertex 8.500000e+01 -2.800000e+02 3.000000e-02
      endloop
   endfacet
   facet normal 0.000000e+00 0.000000e+00 1.000000e+00
      outer loop
         vertex 5.000000e+00 -3.600000e+02 3.000000e-02
         vertex 8.500000e+01 -2.800000e+02 3.000000e-02
         vertex 5.000000e+00 1.800000e+02 3.000000e-02
      endloop
   endfacet
   facet normal -0.000000e+00 0.000000e+00 1.000000e+00
      outer loop
         vertex 5.000000e+00 1.800000e+02 3.000000e-02
         vertex 8.500000e+01 -2.800000e+02 3.000000e-02
         vertex 8.500000e+01 2.600000e+02 3.000000e-02
      endloop
   endfacet
   facet normal 0.000000e+00 -0.000000e+00 1.000000e+00
      outer loop
         vertex 5.000000e+00 1.800000e+02 3.000000e-02
         vertex 8.500000e+01 2.600000e+02 3.000000e-02
         vertex -5.000000e+00 1.800000e+02 3.000000e-02
      endloop
   endfacet
   facet normal 0.000000e+00 -0.000000e+00 1.000000e+00
      outer loop
         vertex -5.000000e+00 1.800000e+02 3.000000e-02
         vertex 8.500000e+01 2.600000e+02 3.000000e-02
         vertex -8.500000e+01 2.600000e+02 3.000000e-02
      endloop
   endfacet
   facet normal 0.000000e+00 0.000000e+00 1.000000e+00
      outer loop
         vertex -5.000000e+00 1.800000e+02 3.000000e-02
         vertex -8.500000e+01 2.600000e+02 3.000000e-02
         vertex -5.000000e+00 -3.600000e+02 3.000000e-02
      endloop
   endfacet
   facet normal 0.000000e+00 0.000000e+00 1.000000e+00
      outer loop
         vertex -5.000000e+00 -3.600000e+02 3.000000e-02
         vertex -8.500000e+01 2.600000e+02 3.000000e-02
         vertex -8.500000e+01 -2.800000e+02 3.000000e-02
      endloop
   endfacet
   facet normal 0.000000e+00 0.000000e+00 1.000000e+00
      outer loop
         vertex -5.000000e+00 -3.600000e+02 3.000000e-02
         vertex -8.500000e+01 -2.800000e+02 3.000000e-02
         vertex -3.750000e+02 -3.600000e+02 3.000000e-02
      endloop
   endfacet
   facet normal 0.000000e+00 0.000000e+00 1.000000e+00
      outer loop
         vertex -3.750000e+02 -3.600000e+02 3.000000e-02
         vertex -8.500000e+01 -2.800000e+02 3.000000e-02
         vertex -2.950000e+02 -2.800000e+02 3.000000e-02
      endloop
   endfacet
   facet normal 0.000000e+00 0.000000e+00 1.000000e+00
      outer loop
         vertex -3.750000e+02 -3.600000e+02 3.000000e-02
         vertex -2.950000e+02 -2.800000e+02 3.000000e-02
         vertex -3.750000e+02 1.800000e+02 3.000000e-02
      endloop
   endfacet
   facet normal -0.000000e+00 0.000000e+00 1.000000e+00
      outer loop
         vertex -3.750000e+02 1.800000e+02 3.000000e-02
         vertex -2.950000e+02 -2.800000e+02 3.000000e-02
         vertex -2.950000e+02 2.600000e+02 3.000000e-02
      endloop
   endfacet
   facet normal 0.000000e+00 -0.000000e+00 1.000000e+00
      outer loop
         vertex -3.750000e+02 1.800000e+02 3.000000e-02
         vertex -2.950000e+02 2.600000e+02 3.000000e-02
         vertex -3.850000e+02 1.800000e+02 3.000000e-02
      endloop
   endfacet
   facet normal 0.000000e+00 -0.000000e+00 1.000000e+00
      outer loop
         vertex -3.850000e+02 1.800000e+02 3.000000e-02
         vertex -2.950000e+02 2.600000e+02 3.000000e-02
         vertex -4.650000e+02 2.600000e+02 3.000000e-02
      endloop
   endfacet
   facet normal 0.000000e+00 0.000000e+00 1.000000e+00
      outer loop
         vertex -3.850000e+02 1.800000e+02 3.000000e-02
         vertex -4.650000e+02 2.600000e+02 3.000000e-02
         vertex -3.850000e+02 -3.600000e+02 3.000000e-02
      endloop
   endfacet
   facet normal 0.000000e+00 0.000000e+00 1.000000e+00
      outer loop
         vertex -3.850000e+02 -3.600000e+02 3.000000e-02
         vertex -4.650000e+02 2.600000e+02 3.000000e-02
         vertex -4.650000e+02 -2.800000e+02 3.000000e-02
      endloop
   endfacet
   facet normal 0.000000e+00 0.000000e+00 1.000000e+00
      outer loop
         vertex -3.850000e+02 -3.600000e+02 3.000000e-02
         vertex -4.650000e+02 -2.800000e+02 3.000000e-02
         vertex -5.650000e+02 -3.600000e+02 3.000000e-02
      endloop
   endfacet
   facet normal 0.000000e+00 0.000000e+00 1.000000e+00
      outer loop
         vertex -5.650000e+02 -3.600000e+02 3.000000e-02
         vertex -4.650000e+02 -2.800000e+02 3.000000e-02
         vertex -4.850000e+02 -2.800000e+02 3.000000e-02
      endloop
   endfacet
   facet normal 0.000000e+00 0.000000e+00 1.000000e+00
      outer loop
         vertex -5.650000e+02 -3.600000e+02 3.000000e-02
         vertex -4.850000e+02 -2.800000e+02 3.000000e-02
         vertex -5.650000e+02 3.600000e+02 3.000000e-02
      endloop
   endfacet
   facet normal 0.000000e+00 0.000000e+00 1.000000e+00
      outer loop
         vertex -5.650000e+02 3.600000e+02 3.000000e-02
         vertex -4.850000e+02 -2.800000e+02 3.000000e-02
         vertex -4.850000e+02 2.800000e+02 3.000000e-02
      endloop
   endfacet
   facet normal -0.000000e+00 0.000000e+00 1.000000e+00
      outer loop
         vertex -5.650000e+02 3.600000e+02 3.000000e-02
         vertex -4.850000e+02 2.800000e+02 3.000000e-02
         vertex -1.950000e+02 3.600000e+02 3.000000e-02
      endloop
   endfacet
   facet normal 0.000000e+00 0.000000e+00 1.000000e+00
      outer loop
         vertex -1.950000e+02 3.600000e+02 3.000000e-02
         vertex -4.850000e+02 2.800000e+02 3.000000e-02
         vertex -2.750000e+02 2.800000e+02 3.000000e-02
      endloop
   endfacet
   facet normal 0.000000e+00 0.000000e+00 1.000000e+00
      outer loop
         vertex -1.950000e+02 3.600000e+02 3.000000e-02
         vertex -2.750000e+02 2.800000e+02 3.000000e-02
         vertex -1.950000e+02 -1.800000e+02 3.000000e-02
      endloop
   endfacet
   facet normal 0.000000e+00 0.000000e+00 1.000000e+00
      outer loop
         vertex -1.950000e+02 -1.800000e+02 3.000000e-02
         vertex -2.750000e+02 2.800000e+02 3.000000e-02
         vertex -2.750000e+02 -2.600000e+02 3.000000e-02
      endloop
   endfacet
   facet normal -0.000000e+00 0.000000e+00 1.000000e+00
      outer loop
         vertex -1.950000e+02 -1.800000e+02 3.000000e-02
         vertex -2.750000e+02 -2.600000e+02 3.000000e-02
         vertex -1.850000e+02 -1.800000e+02 3.000000e-02
      endloop
   endfacet
   facet normal 0.000000e+00 0.000000e+00 1.000000e+00
      outer loop
         vertex -1.850000e+02 -1.800000e+02 3.000000e-02
         vertex -2.750000e+02 -2.600000e+02 3.000000e-02
         vertex -1.050000e+02 -2.600000e+02 3.000000e-02
      endloop
   endfacet
   facet normal -0.000000e+00 0.000000e+00 1.000000e+00
      outer loop
         vertex -1.850000e+02 -1.800000e+02 3.000000e-02
         vertex -1.050000e+02 -2.600000e+02 3.000000e-02
         vertex -1.850000e+02 3.600000e+02 3.000000e-02
      endloop
   endfacet
   facet normal 0.000000e+00 0.000000e+00 1.000000e+00
      outer loop
         vertex -1.850000e+02 3.600000e+02 3.000000e-02
         vertex -1.050000e+02 -2.600000e+02 3.000000e-02
         vertex -1.050000e+02 2.800000e+02 3.000000e-02
      endloop
   endfacet
   facet normal -0.000000e+00 0.000000e+00 1.000000e+00
      outer loop
         vertex -1.850000e+02 3.600000e+02 3.000000e-02
         vertex -1.050000e+02 2.800000e+02 3.000000e-02
         vertex -5.000000e+00 3.600000e+02 3.000000e-02
      endloop
   endfacet
   facet normal 0.000000e+00 0.000000e+00 1.000000e+00
      outer loop
         vertex -5.000000e+00 3.600000e+02 3.000000e-02
         vertex -1.050000e+02 2.800000e+02 3.000000e-02
         vertex -5.000000e+00 2.800000e+02 3.000000e-02
      endloop
   endfacet
   facet normal -0.000000e+00 -0.000000e+00 -1.000000e+00
      outer loop
         vertex -5.000000e+00 3.600000e+02 0.000000e+00
         vertex -5.000000e+00 2.800000e+02 0.000000e+00
         vertex -1.850000e+02 3.600000e+02 0.000000e+00
      endloop
   endfacet
   facet normal 0.000000e+00 0.000000e+00 -1.000000e+00
      outer loop
         vertex -1.850000e+02 3.600000e+02 0.000000e+00
         vertex -5.000000e+00 2.800000e+02 0.000000e+00
         vertex -1.050000e+02 2.800000e+02 0.000000e+00
      endloop
   endfacet
   facet normal 0.000000e+00 0.000000e+00 -1.000000e+00
      outer loop
         vertex -1.850000e+02 3.600000e+02 0.000000e+00
         vertex -1.050000e+02 2.800000e+02 0.000000e+00
         vertex -1.850000e+02 -1.800000e+02 0.000000e+00
      endloop
   endfacet
   facet normal 0.000000e+00 0.000000e+00 -1.000000e+00
      outer loop
         vertex -1.850000e+02 -1.800000e+02 0.000000e+00
         vertex -1.050000e+02 2.800000e+02 0.000000e+00
         vertex -1.050000e+02 -2.600000e+02 0.000000e+00
      endloop
   endfacet
   facet normal -0.000000e+00 -0.000000e+00 -1.000000e+00
      outer loop
         vertex -1.850000e+02 -1.800000e+02 0.000000e+00
         vertex -1.050000e+02 -2.600000e+02 0.000000e+00
         vertex -1.950000e+02 -1.800000e+02 0.000000e+00
      endloop
   endfacet
   facet normal 0.000000e+00 -0.000000e+00 -1.000000e+00
      outer loop
         vertex -1.950000e+02 -1.800000e+02 0.000000e+00
         vertex -1.050000e+02 -2.600000e+02 0.000000e+00
         vertex -2.750000e+02 -2.600000e+02 0.000000e+00
      endloop
   endfacet
   facet normal -0.000000e+00 0.000000e+00 -1.000000e+00
      outer loop
         vertex -1.950000e+02 -1.800000e+02 0.000000e+00
         vertex -2.750000e+02 -2.600000e+02 0.000000e+00
         vertex -1.950000e+02 3.600000e+02 0.000000e+00
      endloop
   endfacet
   facet normal 0.000000e+00 0.000000e+00 -1.000000e+00
      outer loop
         vertex -1.950000e+02 3.600000e+02 0.000000e+00
         vertex -2.750000e+02 -2.600000e+02 0.000000e+00
         vertex -2.750000e+02 2.800000e+02 0.000000e+00
      endloop
   endfacet
   facet normal -0.000000e+00 0.000000e+00 -1.000000e+00
      outer loop
         vertex -1.950000e+02 3.600000e+02 0.000000e+00
         vertex -2.750000e+02 2.800000e+02 0.000000e+00
         vertex -5.650000e+02 3.600000e+02 0.000000e+00
      endloop
   endfacet
   facet normal 0.000000e+00 0.000000e+00 -1.000000e+00
      outer loop
         vertex -5.650000e+02 3.600000e+02 0.000000e+00
         vertex -2.750000e+02 2.800000e+02 0.000000e+00
         vertex -4.850000e+02 2.800000e+02 0.000000e+00
      endloop
   endfacet
   facet normal 0.000000e+00 0.000000e+00 -1.000000e+00
      outer loop
         vertex -5.650000e+02 3.600000e+02 0.000000e+00
         vertex -4.850000e+02 2.800000e+02 0.000000e+00
         vertex -5.650000e+02 -3.600000e+02 0.000000e+00
      endloop
   endfacet
   facet normal 0.000000e+00 0.000000e+00 -1.000000e+00
      outer loop
         vertex -5.650000e+02 -3.600000e+02 0.000000e+00
         vertex -4.850000e+02 2.800000e+02 0.000000e+00
         vertex -4.850000e+02 -2.800000e+02 0.000000e+00
      endloop
   endfacet
   facet normal 0.000000e+00 0.000000e+00 -1.000000e+00
      outer loop
         vertex -5.650000e+02 -3.600000e+02 0.000000e+00
         vertex -4.850000e+02 -2.800000e+02 0.000000e+00
         vertex -3.850000e+02 -3.600000e+02 0.000000e+00
      endloop
   endfacet
   facet normal 0.000000e+00 0.000000e+00 -1.000000e+00
      outer loop
         vertex -3.850000e+02 -3.600000e+02 0.000000e+00
         vertex -4.850000e+02 -2.800000e+02 0.000000e+00
         vertex -4.650000e+02 -2.800000e+02 0.000000e+00
      endloop
   endfacet
   facet normal 0.000000e+00 0.000000e+00 -1.000000e+00
      outer loop
         vertex -3.850000e+02 -3.600000e+02 0.000000e+00
         vertex -4.650000e+02 -2.800000e+02 0.000000e+00
         vertex -3.850000e+02 1.800000e+02 0.000000e+00
      endloop
   endfacet
   facet normal -0.000000e+00 0.000000e+00 -1.000000e+00
      outer loop
         vertex -3.850000e+02 1.800000e+02 0.000000e+00
         vertex -4.650000e+02 -2.800000e+02 0.000000e+00
         vertex -4.650000e+02 2.600000e+02 0.000000e+00
      endloop
   endfacet
   facet normal 0.000000e+00 0.000000e+00 -1.000000e+00
      outer loop
         vertex -3.850000e+02 1.800000e+02 0.000000e+00
         vertex -4.650000e+02 2.600000e+02 0.000000e+00
         vertex -3.750000e+02 1.800000e+02 0.000000e+00
      endloop
   endfacet
   facet normal 0.000000e+00 0.000000e+00 -1.000000e+00
      outer loop
         vertex -3.750000e+02 1.800000e+02 0.000000e+00
         vertex -4.650000e+02 2.600000e+02 0.000000e+00
         vertex -2.950000e+02 2.600000e+02 0.000000e+00
      endloop
   endfacet
   facet normal 0.000000e+00 0.000000e+00 -1.000000e+00
      outer loop
         vertex -3.750000e+02 1.800000e+02 0.000000e+00
         vertex -2.950000e+02 2.600000e+02 0.000000e+00
         vertex -3.750000e+02 -3.600000e+02 0.000000e+00
      endloop
   endfacet
   facet normal 0.000000e+00 0.000000e+00 -1.000000e+00
      outer loop
         vertex -3.750000e+02 -3.600000e+02 0.000000e+00
         vertex -2.950000e+02 2.600000e+02 0.000000e+00
         vertex -2.950000e+02 -2.800000e+02 0.000000e+00
      endloop
   endfacet
   facet normal 0.000000e+00 0.000000e+00 -1.000000e+00
      outer loop
         vertex -3.750000e+02 -3.600000e+02 0.000000e+00
         vertex -2.950000e+02 -2.800000e+02 0.000000e+00
         vertex -5.000000e+00 -3.600000e+02 0.000000e+00
      endloop
   endfacet
   facet normal 0.000000e+00 0.000000e+00 -1.000000e+00
      outer loop
         vertex -5.000000e+00 -3.600000e+02 0.000000e+00
         vertex -2.950000e+02 -2.800000e+02 0.000000e+00
         vertex -8.500000e+01 -2.800000e+02 0.000000e+00
      endloop
   endfacet
   facet normal 0.000000e+00 0.000000e+00 -1.000000e+00
      outer loop
         vertex -5.000000e+00 -3.600000e+02 0.000000e+00
         vertex -8.500000e+01 -2.800000e+02 0.000000e+00
         vertex -5.000000e+00 1.800000e+02 0.000000e+00
      endloop
   endfacet
   facet normal -0.000000e+00 0.000000e+00 -1.000000e+00
      outer loop
         vertex -5.000000e+00 1.800000e+02 0.000000e+00
         vertex -8.500000e+01 -2.800000e+02 0.000000e+00
         vertex -8.500000e+01 2.600000e+02 0.000000e+00
      endloop
   endfacet
   facet normal 0.000000e+00 0.000000e+00 -1.000000e+00
      outer loop
         vertex -5.000000e+00 1.800000e+02 0.000000e+00
         vertex -8.500000e+01 2.600000e+02 0.000000e+00
         vertex 5.000000e+00 1.800000e+02 0.000000e+00
      endloop
   endfacet
   facet normal 0.000000e+00 0.000000e+00 -1.000000e+00
      outer loop
         vertex 5.000000e+00 1.800000e+02 0.000000e+00
         vertex -8.500000e+01 2.600000e+02 0.000000e+00
         vertex 8.500000e+01 2.600000e+02 0.000000e+00
      endloop
   endfacet
   facet normal 0.000000e+00 0.000000e+00 -1.000000e+00
      outer loop
         vertex 5.000000e+00 1.800000e+02 0.000000e+00
         vertex 8.500000e+01 2.600000e+02 0.000000e+00
         vertex 5.000000e+00 -3.600000e+02 0.000000e+00
      endloop
   endfacet
   facet normal 0.000000e+00 0.000000e+00 -1.000000e+00
      outer loop
         vertex 5.000000e+00 -3.600000e+02 0.000000e+00
         vertex 8.500000e+01 2.600000e+02 0.000000e+00
         vertex 8.500000e+01 -2.800000e+02 0.000000e+00
      endloop
   endfacet
   facet normal 0.000000e+00 0.000000e+00 -1.000000e+00
      outer loop
         vertex 5.000000e+00 -3.600000e+02 0.000000e+00
         vertex 8.500000e+01 -2.800000e+02 0.000000e+00
         vertex 3.750000e+02 -3.600000e+02 0.000000e+00
      endloop
   endfacet
   facet normal 0.000000e+00 0.000000e+00 -1.000000e+00
      outer loop
         vertex 3.750000e+02 -3.600000e+02 0.000000e+00
         vertex 8.500000e+01 -2.800000e+02 0.000000e+00
         vertex 2.950000e+02 -2.800000e+02 0.000000e+00
      endloop
   endfacet
   facet normal 0.000000e+00 0.000000e+00 -1.000000e+00
      outer loop
         vertex 3.750000e+02 -3.600000e+02 0.000000e+00
         vertex 2.950000e+02 -2.800000e+02 0.000000e+00
         vertex 3.750000e+02 1.800000e+02 0.000000e+00
      endloop
   endfacet
   facet normal -0.000000e+00 0.000000e+00 -1.000000e+00
      outer loop
         vertex 3.750000e+02 1.800000e+02 0.000000e+00
         vertex 2.950000e+02 -2.800000e+02 0.000000e+00
         vertex 2.950000e+02 2.600000e+02 0.000000e+00
      endloop
   endfacet
   facet normal 0.000000e+00 0.000000e+00 -1.000000e+00
      outer loop
         vertex 3.750000e+02 1.800000e+02 0.000000e+00
         vertex 2.950000e+02 2.600000e+02 0.000000e+00
         vertex 3.850000e+02 1.800000e+02 0.000000e+00
      endloop
   endfacet
   facet normal 0.000000e+00 0.000000e+00 -1.000000e+00
      outer loop
         vertex 3.850000e+02 1.800000e+02 0.000000e+00
         vertex 2.950000e+02 2.600000e+02 0.000000e+00
         vertex 4.650000e+02 2.600000e+02 0.000000e+00
      endloop
   endfacet
   facet normal 0.000000e+00 0.000000e+00 -1.000000e+00
      outer loop
         vertex 3.850000e+02 1.800000e+02 0.000000e+00
         vertex 4.650000e+02 2.600000e+02 0.000000e+00
         vertex 3.850000e+02 -3.600000e+02 0.000000e+00
      endloop
   endfacet
   facet normal 0.000000e+00 0.000000e+00 -1.000000e+00
      outer loop
         vertex 3.850000e+02 -3.600000e+02 0.000000e+00
         vertex 4.650000e+02 2.600000e+02 0.000000e+00
         vertex 4.650000e+02 -2.800000e+02 0.000000e+00
      endloop
   endfacet
   facet normal 0.000000e+00 0.000000e+00 -1.000000e+00
      outer loop
         vertex 3.850000e+02 -3.600000e+02 0.000000e+00
         vertex 4.650000e+02 -2.800000e+02 0.000000e+00
         vertex 5.650000e+02 -3.600000e+02 0.000000e+00
      endloop
   endfacet
   facet normal 0.000000e+00 0.000000e+00 -1.000000e+00
      outer loop
         vertex 5.650000e+02 -3.600000e+02 0.000000e+00
         vertex 4.650000e+02 -2.800000e+02 0.000000e+00
         vertex 4.850000e+02 -2.800000e+02 0.000000e+00
      endloop
   endfacet
   facet normal 0.000000e+00 0.000000e+00 -1.000000e+00
      outer loop
         vertex 5.650000e+02 -3.600000e+02 0.000000e+00
         vertex 4.850000e+02 -2.800000e+02 0.000000e+00
         vertex 5.650000e+02 3.600000e+02 0.000000e+00
      endloop
   endfacet
   facet normal 0.000000e+00 0.000000e+00 -1.000000e+00
      outer loop
         vertex 5.650000e+02 3.600000e+02 0.000000e+00
         vertex 4.850000e+02 -2.800000e+02 0.000000e+00
         vertex 4.850000e+02 2.800000e+02 0.000000e+00
      endloop
   endfacet
   facet normal -0.000000e+00 0.000000e+00 -1.000000e+00
      outer loop
         vertex 5.650000e+02 3.600000e+02 0.000000e+00
         vertex 4.850000e+02 2.800000e+02 0.000000e+00
         vertex 1.950000e+02 3.600000e+02 0.000000e+00
      endloop
   endfacet
   facet normal 0.000000e+00 0.000000e+00 -1.000000e+00
      outer loop
         vertex 1.950000e+02 3.600000e+02 0.000000e+00
         vertex 4.850000e+02 2.800000e+02 0.000000e+00
         vertex 2.750000e+02 2.800000e+02 0.000000e+00
      endloop
   endfacet
   facet normal 0.000000e+00 0.000000e+00 -1.000000e+00
      outer loop
         vertex 1.950000e+02 3.600000e+02 0.000000e+00
         vertex 2.750000e+02 2.800000e+02 0.000000e+00
         vertex 1.950000e+02 -1.800000e+02 0.000000e+00
      endloop
   endfacet
   facet normal 0.000000e+00 0.000000e+00 -1.000000e+00
      outer loop
         vertex 1.950000e+02 -1.800000e+02 0.000000e+00
         vertex 2.750000e+02 2.800000e+02 0.000000e+00
         vertex 2.750000e+02 -2.600000e+02 0.000000e+00
      endloop
   endfacet
   facet normal -0.000000e+00 -0.000000e+00 -1.000000e+00
      outer loop
         vertex 1.950000e+02 -1.800000e+02 0.000000e+00
         vertex 2.750000e+02 -2.600000e+02 0.000000e+00
         vertex 1.850000e+02 -1.800000e+02 0.000000e+00
      endloop
   endfacet
   facet normal 0.000000e+00 -0.000000e+00 -1.000000e+00
      outer loop
         vertex 1.850000e+02 -1.800000e+02 0.000000e+00
         vertex 2.750000e+02 -2.600000e+02 0.000000e+00
         vertex 1.050000e+02 -2.600000e+02 0.000000e+00
      endloop
   endfacet
   facet normal -0.000000e+00 0.000000e+00 -1.000000e+00
      outer loop
         vertex 1.850000e+02 -1.800000e+02 0.000000e+00
         vertex 1.050000e+02 -2.600000e+02 0.000000e+00
         vertex 1.850000e+02 3.600000e+02 0.000000e+00
      endloop
   endfacet
   facet normal 0.000000e+00 0.000000e+00 -1.000000e+00
      outer loop
         vertex 1.850000e+02 3.600000e+02 0.000000e+00
         vertex 1.050000e+02 -2.600000e+02 0.000000e+00
         vertex 1.050000e+02 2.800000e+02 0.000000e+00
      endloop
   endfacet
   facet normal -0.000000e+00 0.000000e+00 -1.000000e+00
      outer loop
         vertex 1.850000e+02 3.600000e+02 0.000000e+00
         vertex 1.050000e+02 2.800000e+02 0.000000e+00
         vertex 5.000000e+00 3.600000e+02 0.000000e+00
      endloop
   endfacet
   facet normal 0.000000e+00 0.000000e+00 -1.000000e+00
      outer loop
         vertex 5.000000e+00 3.600000e+02 0.000000e+00
         vertex 1.050000e+02 2.800000e+02 0.000000e+00
         vertex 5.000000e+00 2.800000e+02 0.000000e+00
      endloop
   endfacet
endsolid OW200127_1