solid single_squat_BE4
   facet normal -0.000000e+00 -1.000000e+00 -0.000000e+00
      outer loop
         vertex -4.011112e+05 6.390132e+04 2.000000e-02
         vertex -4.011930e+05 6.390132e+04 2.000000e-02
         vertex -4.011112e+05 6.390132e+04 0.000000e+00
      endloop
   endfacet
   facet normal 0.000000e+00 -1.000000e+00 0.000000e+00
      outer loop
         vertex -4.011112e+05 6.390132e+04 0.000000e+00
         vertex -4.011930e+05 6.390132e+04 2.000000e-02
         vertex -4.011930e+05 6.390132e+04 0.000000e+00
      endloop
   endfacet
   facet normal 1.000000e+00 0.000000e+00 0.000000e+00
      outer loop
         vertex -4.011112e+05 6.392520e+04 2.000000e-02
         vertex -4.011112e+05 6.390132e+04 2.000000e-02
         vertex -4.011112e+05 6.392520e+04 0.000000e+00
      endloop
   endfacet
   facet normal 1.000000e+00 0.000000e+00 0.000000e+00
      outer loop
         vertex -4.011112e+05 6.392520e+04 0.000000e+00
         vertex -4.011112e+05 6.390132e+04 2.000000e-02
         vertex -4.011112e+05 6.390132e+04 0.000000e+00
      endloop
   endfacet
   facet normal -0.000000e+00 -1.000000e+00 -0.000000e+00
      outer loop
         vertex -4.010996e+05 6.392520e+04 2.000000e-02
         vertex -4.011112e+05 6.392520e+04 2.000000e-02
         vertex -4.010996e+05 6.392520e+04 0.000000e+00
      endloop
   endfacet
   facet normal 0.000000e+00 -1.000000e+00 0.000000e+00
      outer loop
         vertex -4.010996e+05 6.392520e+04 0.000000e+00
         vertex -4.011112e+05 6.392520e+04 2.000000e-02
         vertex -4.011112e+05 6.392520e+04 0.000000e+00
      endloop
   endfacet
   facet normal -4.254925e-01 -9.049619e-01 -0.000000e+00
      outer loop
         vertex -4.010489e+05 6.390132e+04 2.000000e-02
         vertex -4.010996e+05 6.392520e+04 2.000000e-02
         vertex -4.010489e+05 6.390132e+04 0.000000e+00
      endloop
   endfacet
   facet normal -4.254925e-01 -9.049619e-01 0.000000e+00
      outer loop
         vertex -4.010489e+05 6.390132e+04 0.000000e+00
         vertex -4.010996e+05 6.392520e+04 2.000000e-02
         vertex -4.010996e+05 6.392520e+04 0.000000e+00
      endloop
   endfacet
   facet normal -0.000000e+00 -1.000000e+00 -0.000000e+00
      outer loop
         vertex -4.009715e+05 6.390132e+04 2.000000e-02
         vertex -4.010489e+05 6.390132e+04 2.000000e-02
         vertex -4.009715e+05 6.390132e+04 0.000000e+00
      endloop
   endfacet
   facet normal 0.000000e+00 -1.000000e+00 0.000000e+00
      outer loop
         vertex -4.009715e+05 6.390132e+04 0.000000e+00
         vertex -4.010489e+05 6.390132e+04 2.000000e-02
         vertex -4.010489e+05 6.390132e+04 0.000000e+00
      endloop
   endfacet
   facet normal 1.000000e+00 0.000000e+00 0.000000e+00
      outer loop
         vertex -4.009715e+05 6.390640e+04 2.000000e-02
         vertex -4.009715e+05 6.390132e+04 2.000000e-02
         vertex -4.009715e+05 6.390640e+04 0.000000e+00
      endloop
   endfacet
   facet normal 1.000000e+00 0.000000e+00 0.000000e+00
      outer loop
         vertex -4.009715e+05 6.390640e+04 0.000000e+00
         vertex -4.009715e+05 6.390132e+04 2.000000e-02
         vertex -4.009715e+05 6.390132e+04 0.000000e+00
      endloop
   endfacet
   facet normal -0.000000e+00 1.000000e+00 0.000000e+00
      outer loop
         vertex -4.010477e+05 6.390640e+04 2.000000e-02
         vertex -4.009715e+05 6.390640e+04 2.000000e-02
         vertex -4.010477e+05 6.390640e+04 0.000000e+00
      endloop
   endfacet
   facet normal 0.000000e+00 1.000000e+00 0.000000e+00
      outer loop
         vertex -4.010477e+05 6.390640e+04 0.000000e+00
         vertex -4.009715e+05 6.390640e+04 2.000000e-02
         vertex -4.009715e+05 6.390640e+04 0.000000e+00
      endloop
   endfacet
   facet normal 4.252832e-01 9.050603e-01 0.000000e+00
      outer loop
         vertex -4.010985e+05 6.393027e+04 2.000000e-02
         vertex -4.010477e+05 6.390640e+04 2.000000e-02
         vertex -4.010985e+05 6.393027e+04 0.000000e+00
      endloop
   endfacet
   facet normal 4.252832e-01 9.050603e-01 0.000000e+00
      outer loop
         vertex -4.010985e+05 6.393027e+04 0.000000e+00
         vertex -4.010477e+05 6.390640e+04 2.000000e-02
         vertex -4.010477e+05 6.390640e+04 0.000000e+00
      endloop
   endfacet
   facet normal -0.000000e+00 1.000000e+00 0.000000e+00
      outer loop
         vertex -4.011112e+05 6.393027e+04 2.000000e-02
         vertex -4.010985e+05 6.393027e+04 2.000000e-02
         vertex -4.011112e+05 6.393027e+04 0.000000e+00
      endloop
   endfacet
   facet normal 0.000000e+00 1.000000e+00 0.000000e+00
      outer loop
         vertex -4.011112e+05 6.393027e+04 0.000000e+00
         vertex -4.010985e+05 6.393027e+04 2.000000e-02
         vertex -4.010985e+05 6.393027e+04 0.000000e+00
      endloop
   endfacet
   facet normal 1.000000e+00 0.000000e+00 0.000000e+00
      outer loop
         vertex -4.011112e+05 6.393332e+04 2.000000e-02
         vertex -4.011112e+05 6.393027e+04 2.000000e-02
         vertex -4.011112e+05 6.393332e+04 0.000000e+00
      endloop
   endfacet
   facet normal 1.000000e+00 0.000000e+00 0.000000e+00
      outer loop
         vertex -4.011112e+05 6.393332e+04 0.000000e+00
         vertex -4.011112e+05 6.393027e+04 2.000000e-02
         vertex -4.011112e+05 6.393027e+04 0.000000e+00
      endloop
   endfacet
   facet normal -0.000000e+00 -1.000000e+00 -0.000000e+00
      outer loop
         vertex -4.010985e+05 6.393332e+04 2.000000e-02
         vertex -4.011112e+05 6.393332e+04 2.000000e-02
         vertex -4.010985e+05 6.393332e+04 0.000000e+00
      endloop
   endfacet
   facet normal 0.000000e+00 -1.000000e+00 0.000000e+00
      outer loop
         vertex -4.010985e+05 6.393332e+04 0.000000e+00
         vertex -4.011112e+05 6.393332e+04 2.000000e-02
         vertex -4.011112e+05 6.393332e+04 0.000000e+00
      endloop
   endfacet
   facet normal 4.252832e-01 -9.050603e-01 0.000000e+00
      outer loop
         vertex -4.010477e+05 6.395720e+04 2.000000e-02
         vertex -4.010985e+05 6.393332e+04 2.000000e-02
         vertex -4.010477e+05 6.395720e+04 0.000000e+00
      endloop
   endfacet
   facet normal 4.252832e-01 -9.050603e-01 0.000000e+00
      outer loop
         vertex -4.010477e+05 6.395720e+04 0.000000e+00
         vertex -4.010985e+05 6.393332e+04 2.000000e-02
         vertex -4.010985e+05 6.393332e+04 0.000000e+00
      endloop
   endfacet
   facet normal -0.000000e+00 -1.000000e+00 -0.000000e+00
      outer loop
         vertex -4.009715e+05 6.395720e+04 2.000000e-02
         vertex -4.010477e+05 6.395720e+04 2.000000e-02
         vertex -4.009715e+05 6.395720e+04 0.000000e+00
      endloop
   endfacet
   facet normal 0.000000e+00 -1.000000e+00 0.000000e+00
      outer loop
         vertex -4.009715e+05 6.395720e+04 0.000000e+00
         vertex -4.010477e+05 6.395720e+04 2.000000e-02
         vertex -4.010477e+05 6.395720e+04 0.000000e+00
      endloop
   endfacet
   facet normal 1.000000e+00 0.000000e+00 0.000000e+00
      outer loop
         vertex -4.009715e+05 6.396228e+04 2.000000e-02
         vertex -4.009715e+05 6.395720e+04 2.000000e-02
         vertex -4.009715e+05 6.396228e+04 0.000000e+00
      endloop
   endfacet
   facet normal 1.000000e+00 0.000000e+00 0.000000e+00
      outer loop
         vertex -4.009715e+05 6.396228e+04 0.000000e+00
         vertex -4.009715e+05 6.395720e+04 2.000000e-02
         vertex -4.009715e+05 6.395720e+04 0.000000e+00
      endloop
   endfacet
   facet normal -0.000000e+00 1.000000e+00 0.000000e+00
      outer loop
         vertex -4.010489e+05 6.396228e+04 2.000000e-02
         vertex -4.009715e+05 6.396228e+04 2.000000e-02
         vertex -4.010489e+05 6.396228e+04 0.000000e+00
      endloop
   endfacet
   facet normal 0.000000e+00 1.000000e+00 0.000000e+00
      outer loop
         vertex -4.010489e+05 6.396228e+04 0.000000e+00
         vertex -4.009715e+05 6.396228e+04 2.000000e-02
         vertex -4.009715e+05 6.396228e+04 0.000000e+00
      endloop
   endfacet
   facet normal -4.254925e-01 9.049619e-01 0.000000e+00
      outer loop
         vertex -4.010996e+05 6.393840e+04 2.000000e-02
         vertex -4.010489e+05 6.396228e+04 2.000000e-02
         vertex -4.010996e+05 6.393840e+04 0.000000e+00
      endloop
   endfacet
   facet normal -4.254925e-01 9.049619e-01 0.000000e+00
      outer loop
         vertex -4.010996e+05 6.393840e+04 0.000000e+00
         vertex -4.010489e+05 6.396228e+04 2.000000e-02
         vertex -4.010489e+05 6.396228e+04 0.000000e+00
      endloop
   endfacet
   facet normal -0.000000e+00 1.000000e+00 0.000000e+00
      outer loop
         vertex -4.011112e+05 6.393840e+04 2.000000e-02
         vertex -4.010996e+05 6.393840e+04 2.000000e-02
         vertex -4.011112e+05 6.393840e+04 0.000000e+00
      endloop
   endfacet
   facet normal 0.000000e+00 1.000000e+00 0.000000e+00
      outer loop
         vertex -4.011112e+05 6.393840e+04 0.000000e+00
         vertex -4.010996e+05 6.393840e+04 2.000000e-02
         vertex -4.010996e+05 6.393840e+04 0.000000e+00
      endloop
   endfacet
   facet normal 1.000000e+00 0.000000e+00 0.000000e+00
      outer loop
         vertex -4.011112e+05 6.396228e+04 2.000000e-02
         vertex -4.011112e+05 6.393840e+04 2.000000e-02
         vertex -4.011112e+05 6.396228e+04 0.000000e+00
      endloop
   endfacet
   facet normal 1.000000e+00 0.000000e+00 0.000000e+00
      outer loop
         vertex -4.011112e+05 6.396228e+04 0.000000e+00
         vertex -4.011112e+05 6.393840e+04 2.000000e-02
         vertex -4.011112e+05 6.393840e+04 0.000000e+00
      endloop
   endfacet
   facet normal -0.000000e+00 1.000000e+00 0.000000e+00
      outer loop
         vertex -4.011930e+05 6.396228e+04 2.000000e-02
         vertex -4.011112e+05 6.396228e+04 2.000000e-02
         vertex -4.011930e+05 6.396228e+04 0.000000e+00
      endloop
   endfacet
   facet normal 0.000000e+00 1.000000e+00 0.000000e+00
      outer loop
         vertex -4.011930e+05 6.396228e+04 0.000000e+00
         vertex -4.011112e+05 6.396228e+04 2.000000e-02
         vertex -4.011112e+05 6.396228e+04 0.000000e+00
      endloop
   endfacet
   facet normal -1.000000e+00 0.000000e+00 0.000000e+00
      outer loop
         vertex -4.011930e+05 6.395720e+04 2.000000e-02
         vertex -4.011930e+05 6.396228e+04 2.000000e-02
         vertex -4.011930e+05 6.395720e+04 0.000000e+00
      endloop
   endfacet
   facet normal -1.000000e+00 0.000000e+00 0.000000e+00
      outer loop
         vertex -4.011930e+05 6.395720e+04 0.000000e+00
         vertex -4.011930e+05 6.396228e+04 2.000000e-02
         vertex -4.011930e+05 6.396228e+04 0.000000e+00
      endloop
   endfacet
   facet normal -0.000000e+00 -1.000000e+00 -0.000000e+00
      outer loop
         vertex -4.011168e+05 6.395720e+04 2.000000e-02
         vertex -4.011930e+05 6.395720e+04 2.000000e-02
         vertex -4.011168e+05 6.395720e+04 0.000000e+00
      endloop
   endfacet
   facet normal 0.000000e+00 -1.000000e+00 0.000000e+00
      outer loop
         vertex -4.011168e+05 6.395720e+04 0.000000e+00
         vertex -4.011930e+05 6.395720e+04 2.000000e-02
         vertex -4.011930e+05 6.395720e+04 0.000000e+00
      endloop
   endfacet
   facet normal -1.000000e+00 0.000000e+00 0.000000e+00
      outer loop
         vertex -4.011168e+05 6.390640e+04 2.000000e-02
         vertex -4.011168e+05 6.395720e+04 2.000000e-02
         vertex -4.011168e+05 6.390640e+04 0.000000e+00
      endloop
   endfacet
   facet normal -1.000000e+00 0.000000e+00 0.000000e+00
      outer loop
         vertex -4.011168e+05 6.390640e+04 0.000000e+00
         vertex -4.011168e+05 6.395720e+04 2.000000e-02
         vertex -4.011168e+05 6.395720e+04 0.000000e+00
      endloop
   endfacet
   facet normal -0.000000e+00 1.000000e+00 0.000000e+00
      outer loop
         vertex -4.011930e+05 6.390640e+04 2.000000e-02
         vertex -4.011168e+05 6.390640e+04 2.000000e-02
         vertex -4.011930e+05 6.390640e+04 0.000000e+00
      endloop
   endfacet
   facet normal 0.000000e+00 1.000000e+00 0.000000e+00
      outer loop
         vertex -4.011930e+05 6.390640e+04 0.000000e+00
         vertex -4.011168e+05 6.390640e+04 2.000000e-02
         vertex -4.011168e+05 6.390640e+04 0.000000e+00
      endloop
   endfacet
   facet normal -1.000000e+00 0.000000e+00 0.000000e+00
      outer loop
         vertex -4.011930e+05 6.390132e+04 2.000000e-02
         vertex -4.011930e+05 6.390640e+04 2.000000e-02
         vertex -4.011930e+05 6.390132e+04 0.000000e+00
      endloop
   endfacet
   facet normal -1.000000e+00 0.000000e+00 0.000000e+00
      outer loop
         vertex -4.011930e+05 6.390132e+04 0.000000e+00
         vertex -4.011930e+05 6.390640e+04 2.000000e-02
         vertex -4.011930e+05 6.390640e+04 0.000000e+00
      endloop
   endfacet
   facet normal 0.000000e+00 0.000000e+00 1.000000e+00
      outer loop
         vertex -4.011112e+05 6.392520e+04 2.000000e-02
         vertex -4.011168e+05 6.395720e+04 2.000000e-02
         vertex -4.011168e+05 6.390640e+04 2.000000e-02
      endloop
   endfacet
   facet normal -0.000000e+00 0.000000e+00 1.000000e+00
      outer loop
         vertex -4.011930e+05 6.390640e+04 2.000000e-02
         vertex -4.011930e+05 6.390132e+04 2.000000e-02
         vertex -4.011168e+05 6.390640e+04 2.000000e-02
      endloop
   endfacet
   facet normal 0.000000e+00 0.000000e+00 1.000000e+00
      outer loop
         vertex -4.011168e+05 6.390640e+04 2.000000e-02
         vertex -4.011930e+05 6.390132e+04 2.000000e-02
         vertex -4.011112e+05 6.390132e+04 2.000000e-02
      endloop
   endfacet
   facet normal -0.000000e+00 0.000000e+00 1.000000e+00
      outer loop
         vertex -4.011168e+05 6.390640e+04 2.000000e-02
         vertex -4.011112e+05 6.390132e+04 2.000000e-02
         vertex -4.011112e+05 6.392520e+04 2.000000e-02
      endloop
   endfacet
   facet normal 0.000000e+00 0.000000e+00 1.000000e+00
      outer loop
         vertex -4.011112e+05 6.393332e+04 2.000000e-02
         vertex -4.011168e+05 6.395720e+04 2.000000e-02
         vertex -4.011112e+05 6.393027e+04 2.000000e-02
      endloop
   endfacet
   facet normal 0.000000e+00 0.000000e+00 1.000000e+00
      outer loop
         vertex -4.011112e+05 6.393027e+04 2.000000e-02
         vertex -4.011168e+05 6.395720e+04 2.000000e-02
         vertex -4.011112e+05 6.392520e+04 2.000000e-02
      endloop
   endfacet
   facet normal -0.000000e+00 0.000000e+00 1.000000e+00
      outer loop
         vertex -4.011112e+05 6.393027e+04 2.000000e-02
         vertex -4.011112e+05 6.392520e+04 2.000000e-02
         vertex -4.010985e+05 6.393027e+04 2.000000e-02
      endloop
   endfacet
   facet normal 0.000000e+00 0.000000e+00 1.000000e+00
      outer loop
         vertex -4.010985e+05 6.393027e+04 2.000000e-02
         vertex -4.011112e+05 6.392520e+04 2.000000e-02
         vertex -4.010996e+05 6.392520e+04 2.000000e-02
      endloop
   endfacet
   facet normal 0.000000e+00 0.000000e+00 1.000000e+00
      outer loop
         vertex -4.010985e+05 6.393027e+04 2.000000e-02
         vertex -4.010996e+05 6.392520e+04 2.000000e-02
         vertex -4.010477e+05 6.390640e+04 2.000000e-02
      endloop
   endfacet
   facet normal 0.000000e+00 0.000000e+00 1.000000e+00
      outer loop
         vertex -4.010477e+05 6.390640e+04 2.000000e-02
         vertex -4.010996e+05 6.392520e+04 2.000000e-02
         vertex -4.010489e+05 6.390132e+04 2.000000e-02
      endloop
   endfacet
   facet normal -0.000000e+00 0.000000e+00 1.000000e+00
      outer loop
         vertex -4.010477e+05 6.390640e+04 2.000000e-02
         vertex -4.010489e+05 6.390132e+04 2.000000e-02
         vertex -4.009715e+05 6.390640e+04 2.000000e-02
      endloop
   endfacet
   facet normal 0.000000e+00 0.000000e+00 1.000000e+00
      outer loop
         vertex -4.009715e+05 6.390640e+04 2.000000e-02
         vertex -4.010489e+05 6.390132e+04 2.000000e-02
         vertex -4.009715e+05 6.390132e+04 2.000000e-02
      endloop
   endfacet
   facet normal 0.000000e+00 -0.000000e+00 1.000000e+00
      outer loop
         vertex -4.009715e+05 6.395720e+04 2.000000e-02
         vertex -4.009715e+05 6.396228e+04 2.000000e-02
         vertex -4.010477e+05 6.395720e+04 2.000000e-02
      endloop
   endfacet
   facet normal 0.000000e+00 -0.000000e+00 1.000000e+00
      outer loop
         vertex -4.010477e+05 6.395720e+04 2.000000e-02
         vertex -4.009715e+05 6.396228e+04 2.000000e-02
         vertex -4.010489e+05 6.396228e+04 2.000000e-02
      endloop
   endfacet
   facet normal 0.000000e+00 0.000000e+00 1.000000e+00
      outer loop
         vertex -4.010477e+05 6.395720e+04 2.000000e-02
         vertex -4.010489e+05 6.396228e+04 2.000000e-02
         vertex -4.010985e+05 6.393332e+04 2.000000e-02
      endloop
   endfacet
   facet normal 0.000000e+00 -0.000000e+00 1.000000e+00
      outer loop
         vertex -4.010985e+05 6.393332e+04 2.000000e-02
         vertex -4.010489e+05 6.396228e+04 2.000000e-02
         vertex -4.010996e+05 6.393840e+04 2.000000e-02
      endloop
   endfacet
   facet normal 0.000000e+00 0.000000e+00 1.000000e+00
      outer loop
         vertex -4.010985e+05 6.393332e+04 2.000000e-02
         vertex -4.010996e+05 6.393840e+04 2.000000e-02
         vertex -4.011112e+05 6.393332e+04 2.000000e-02
      endloop
   endfacet
   facet normal 0.000000e+00 0.000000e+00 1.000000e+00
      outer loop
         vertex -4.011112e+05 6.393332e+04 2.000000e-02
         vertex -4.010996e+05 6.393840e+04 2.000000e-02
         vertex -4.011112e+05 6.393840e+04 2.000000e-02
      endloop
   endfacet
   facet normal 0.000000e+00 -0.000000e+00 1.000000e+00
      outer loop
         vertex -4.011112e+05 6.393332e+04 2.000000e-02
         vertex -4.011112e+05 6.393840e+04 2.000000e-02
         vertex -4.011168e+05 6.395720e+04 2.000000e-02
      endloop
   endfacet
   facet normal -0.000000e+00 0.000000e+00 1.000000e+00
      outer loop
         vertex -4.011168e+05 6.395720e+04 2.000000e-02
         vertex -4.011112e+05 6.393840e+04 2.000000e-02
         vertex -4.011112e+05 6.396228e+04 2.000000e-02
      endloop
   endfacet
   facet normal 0.000000e+00 -0.000000e+00 1.000000e+00
      outer loop
         vertex -4.011168e+05 6.395720e+04 2.000000e-02
         vertex -4.011112e+05 6.396228e+04 2.000000e-02
         vertex -4.011930e+05 6.395720e+04 2.000000e-02
      endloop
   endfacet
   facet normal 0.000000e+00 0.000000e+00 1.000000e+00
      outer loop
         vertex -4.011930e+05 6.395720e+04 2.000000e-02
         vertex -4.011112e+05 6.396228e+04 2.000000e-02
         vertex -4.011930e+05 6.396228e+04 2.000000e-02
      endloop
   endfacet
   facet normal 0.000000e+00 0.000000e+00 -1.000000e+00
      outer loop
         vertex -4.011168e+05 6.395720e+04 0.000000e+00
         vertex -4.011930e+05 6.395720e+04 0.000000e+00
         vertex -4.011930e+05 6.396228e+04 0.000000e+00
      endloop
   endfacet
   facet normal 0.000000e+00 0.000000e+00 -1.000000e+00
      outer loop
         vertex -4.011930e+05 6.396228e+04 0.000000e+00
         vertex -4.011112e+05 6.396228e+04 0.000000e+00
         vertex -4.011168e+05 6.395720e+04 0.000000e+00
      endloop
   endfacet
   facet normal 0.000000e+00 0.000000e+00 -1.000000e+00
      outer loop
         vertex -4.011168e+05 6.395720e+04 0.000000e+00
         vertex -4.011112e+05 6.396228e+04 0.000000e+00
         vertex -4.011112e+05 6.393840e+04 0.000000e+00
      endloop
   endfacet
   facet normal 0.000000e+00 0.000000e+00 -1.000000e+00
      outer loop
         vertex -4.011168e+05 6.395720e+04 0.000000e+00
         vertex -4.011112e+05 6.393840e+04 0.000000e+00
         vertex -4.011168e+05 6.390640e+04 0.000000e+00
      endloop
   endfacet
   facet normal -0.000000e+00 0.000000e+00 -1.000000e+00
      outer loop
         vertex -4.011112e+05 6.393027e+04 0.000000e+00
         vertex -4.011168e+05 6.390640e+04 0.000000e+00
         vertex -4.011112e+05 6.393332e+04 0.000000e+00
      endloop
   endfacet
   facet normal -0.000000e+00 0.000000e+00 -1.000000e+00
      outer loop
         vertex -4.011112e+05 6.393332e+04 0.000000e+00
         vertex -4.011168e+05 6.390640e+04 0.000000e+00
         vertex -4.011112e+05 6.393840e+04 0.000000e+00
      endloop
   endfacet
   facet normal 0.000000e+00 0.000000e+00 -1.000000e+00
      outer loop
         vertex -4.011112e+05 6.393332e+04 0.000000e+00
         vertex -4.011112e+05 6.393840e+04 0.000000e+00
         vertex -4.010985e+05 6.393332e+04 0.000000e+00
      endloop
   endfacet
   facet normal 0.000000e+00 0.000000e+00 -1.000000e+00
      outer loop
         vertex -4.010985e+05 6.393332e+04 0.000000e+00
         vertex -4.011112e+05 6.393840e+04 0.000000e+00
         vertex -4.010996e+05 6.393840e+04 0.000000e+00
      endloop
   endfacet
   facet normal 0.000000e+00 0.000000e+00 -1.000000e+00
      outer loop
         vertex -4.010985e+05 6.393332e+04 0.000000e+00
         vertex -4.010996e+05 6.393840e+04 0.000000e+00
         vertex -4.010477e+05 6.395720e+04 0.000000e+00
      endloop
   endfacet
   facet normal -0.000000e+00 0.000000e+00 -1.000000e+00
      outer loop
         vertex -4.010477e+05 6.395720e+04 0.000000e+00
         vertex -4.010996e+05 6.393840e+04 0.000000e+00
         vertex -4.010489e+05 6.396228e+04 0.000000e+00
      endloop
   endfacet
   facet normal 0.000000e+00 0.000000e+00 -1.000000e+00
      outer loop
         vertex -4.010477e+05 6.395720e+04 0.000000e+00
         vertex -4.010489e+05 6.396228e+04 0.000000e+00
         vertex -4.009715e+05 6.395720e+04 0.000000e+00
      endloop
   endfacet
   facet normal 0.000000e+00 0.000000e+00 -1.000000e+00
      outer loop
         vertex -4.009715e+05 6.395720e+04 0.000000e+00
         vertex -4.010489e+05 6.396228e+04 0.000000e+00
         vertex -4.009715e+05 6.396228e+04 0.000000e+00
      endloop
   endfacet
   facet normal -0.000000e+00 -0.000000e+00 -1.000000e+00
      outer loop
         vertex -4.009715e+05 6.390640e+04 0.000000e+00
         vertex -4.009715e+05 6.390132e+04 0.000000e+00
         vertex -4.010477e+05 6.390640e+04 0.000000e+00
      endloop
   endfacet
   facet normal 0.000000e+00 -0.000000e+00 -1.000000e+00
      outer loop
         vertex -4.010477e+05 6.390640e+04 0.000000e+00
         vertex -4.009715e+05 6.390132e+04 0.000000e+00
         vertex -4.010489e+05 6.390132e+04 0.000000e+00
      endloop
   endfacet
   facet normal -0.000000e+00 0.000000e+00 -1.000000e+00
      outer loop
         vertex -4.010477e+05 6.390640e+04 0.000000e+00
         vertex -4.010489e+05 6.390132e+04 0.000000e+00
         vertex -4.010985e+05 6.393027e+04 0.000000e+00
      endloop
   endfacet
   facet normal 0.000000e+00 -0.000000e+00 -1.000000e+00
      outer loop
         vertex -4.010985e+05 6.393027e+04 0.000000e+00
         vertex -4.010489e+05 6.390132e+04 0.000000e+00
         vertex -4.010996e+05 6.392520e+04 0.000000e+00
      endloop
   endfacet
   facet normal -0.000000e+00 0.000000e+00 -1.000000e+00
      outer loop
         vertex -4.010985e+05 6.393027e+04 0.000000e+00
         vertex -4.010996e+05 6.392520e+04 0.000000e+00
         vertex -4.011112e+05 6.393027e+04 0.000000e+00
      endloop
   endfacet
   facet normal 0.000000e+00 0.000000e+00 -1.000000e+00
      outer loop
         vertex -4.011112e+05 6.393027e+04 0.000000e+00
         vertex -4.010996e+05 6.392520e+04 0.000000e+00
         vertex -4.011112e+05 6.392520e+04 0.000000e+00
      endloop
   endfacet
   facet normal 0.000000e+00 -0.000000e+00 -1.000000e+00
      outer loop
         vertex -4.011112e+05 6.393027e+04 0.000000e+00
         vertex -4.011112e+05 6.392520e+04 0.000000e+00
         vertex -4.011168e+05 6.390640e+04 0.000000e+00
      endloop
   endfacet
   facet normal 0.000000e+00 0.000000e+00 -1.000000e+00
      outer loop
         vertex -4.011168e+05 6.390640e+04 0.000000e+00
         vertex -4.011112e+05 6.392520e+04 0.000000e+00
         vertex -4.011112e+05 6.390132e+04 0.000000e+00
      endloop
   endfacet
   facet normal -0.000000e+00 -0.000000e+00 -1.000000e+00
      outer loop
         vertex -4.011168e+05 6.390640e+04 0.000000e+00
         vertex -4.011112e+05 6.390132e+04 0.000000e+00
         vertex -4.011930e+05 6.390640e+04 0.000000e+00
      endloop
   endfacet
   facet normal 0.000000e+00 0.000000e+00 -1.000000e+00
      outer loop
         vertex -4.011930e+05 6.390640e+04 0.000000e+00
         vertex -4.011112e+05 6.390132e+04 0.000000e+00
         vertex -4.011930e+05 6.390132e+04 0.000000e+00
      endloop
   endfacet
endsolid single_squat_BE4