solid single_squat_BE5
   facet normal 9.673249e-02 -9.953104e-01 0.000000e+00
      outer loop
         vertex -1.578057e+04 2.515038e+03 2.000000e-02
         vertex -1.578096e+04 2.515000e+03 2.000000e-02
         vertex -1.578057e+04 2.515038e+03 -6.776264e-18
      endloop
   endfacet
   facet normal 9.673249e-02 -9.953104e-01 0.000000e+00
      outer loop
         vertex -1.578057e+04 2.515038e+03 -6.776264e-18
         vertex -1.578096e+04 2.515000e+03 2.000000e-02
         vertex -1.578096e+04 2.515000e+03 -6.776264e-18
      endloop
   endfacet
   facet normal 2.902433e-01 -9.569529e-01 0.000000e+00
      outer loop
         vertex -1.578020e+04 2.515152e+03 2.000000e-02
         vertex -1.578057e+04 2.515038e+03 2.000000e-02
         vertex -1.578020e+04 2.515152e+03 -6.776264e-18
      endloop
   endfacet
   facet normal 2.902433e-01 -9.569529e-01 0.000000e+00
      outer loop
         vertex -1.578020e+04 2.515152e+03 -6.776264e-18
         vertex -1.578057e+04 2.515038e+03 2.000000e-02
         vertex -1.578057e+04 2.515038e+03 -6.776264e-18
      endloop
   endfacet
   facet normal 4.723565e-01 -8.814076e-01 0.000000e+00
      outer loop
         vertex -1.577985e+04 2.515337e+03 2.000000e-02
         vertex -1.578020e+04 2.515152e+03 2.000000e-02
         vertex -1.577985e+04 2.515337e+03 0.000000e+00
      endloop
   endfacet
   facet normal 4.723565e-01 -8.814076e-01 0.000000e+00
      outer loop
         vertex -1.577985e+04 2.515337e+03 0.000000e+00
         vertex -1.578020e+04 2.515152e+03 2.000000e-02
         vertex -1.578020e+04 2.515152e+03 0.000000e+00
      endloop
   endfacet
   facet normal 6.344284e-01 -7.729817e-01 0.000000e+00
      outer loop
         vertex -1.577955e+04 2.515586e+03 2.000000e-02
         vertex -1.577985e+04 2.515337e+03 2.000000e-02
         vertex -1.577955e+04 2.515586e+03 -6.776264e-18
      endloop
   endfacet
   facet normal 6.344284e-01 -7.729817e-01 0.000000e+00
      outer loop
         vertex -1.577955e+04 2.515586e+03 -6.776264e-18
         vertex -1.577985e+04 2.515337e+03 2.000000e-02
         vertex -1.577985e+04 2.515337e+03 -6.776264e-18
      endloop
   endfacet
   facet normal 7.727369e-01 -6.347265e-01 0.000000e+00
      outer loop
         vertex -1.577930e+04 2.515889e+03 2.000000e-02
         vertex -1.577955e+04 2.515586e+03 2.000000e-02
         vertex -1.577930e+04 2.515889e+03 -6.776264e-18
      endloop
   endfacet
   facet normal 7.727369e-01 -6.347265e-01 0.000000e+00
      outer loop
         vertex -1.577930e+04 2.515889e+03 -6.776264e-18
         vertex -1.577955e+04 2.515586e+03 2.000000e-02
         vertex -1.577955e+04 2.515586e+03 -6.776264e-18
      endloop
   endfacet
   facet normal 8.819491e-01 -4.713447e-01 0.000000e+00
      outer loop
         vertex -1.577911e+04 2.516235e+03 2.000000e-02
         vertex -1.577930e+04 2.515889e+03 2.000000e-02
         vertex -1.577911e+04 2.516235e+03 0.000000e+00
      endloop
   endfacet
   facet normal 8.819491e-01 -4.713447e-01 0.000000e+00
      outer loop
         vertex -1.577911e+04 2.516235e+03 0.000000e+00
         vertex -1.577930e+04 2.515889e+03 2.000000e-02
         vertex -1.577930e+04 2.515889e+03 0.000000e+00
      endloop
   endfacet
   facet normal 9.570858e-01 -2.898046e-01 0.000000e+00
      outer loop
         vertex -1.577900e+04 2.516610e+03 2.000000e-02
         vertex -1.577911e+04 2.516235e+03 2.000000e-02
         vertex -1.577900e+04 2.516610e+03 -6.776264e-18
      endloop
   endfacet
   facet normal 9.570858e-01 -2.898046e-01 0.000000e+00
      outer loop
         vertex -1.577900e+04 2.516610e+03 -6.776264e-18
         vertex -1.577911e+04 2.516235e+03 2.000000e-02
         vertex -1.577911e+04 2.516235e+03 -6.776264e-18
      endloop
   endfacet
   facet normal 9.952517e-01 -9.733513e-02 0.000000e+00
      outer loop
         vertex -1.577896e+04 2.517000e+03 2.000000e-02
         vertex -1.577900e+04 2.516610e+03 2.000000e-02
         vertex -1.577896e+04 2.517000e+03 6.776264e-18
      endloop
   endfacet
   facet normal 9.952517e-01 -9.733513e-02 0.000000e+00
      outer loop
         vertex -1.577896e+04 2.517000e+03 6.776264e-18
         vertex -1.577900e+04 2.516610e+03 2.000000e-02
         vertex -1.577900e+04 2.516610e+03 6.776264e-18
      endloop
   endfacet
   facet normal 9.952517e-01 9.733513e-02 0.000000e+00
      outer loop
         vertex -1.577900e+04 2.517390e+03 2.000000e-02
         vertex -1.577896e+04 2.517000e+03 2.000000e-02
         vertex -1.577900e+04 2.517390e+03 6.776264e-18
      endloop
   endfacet
   facet normal 9.952517e-01 9.733513e-02 0.000000e+00
      outer loop
         vertex -1.577900e+04 2.517390e+03 6.776264e-18
         vertex -1.577896e+04 2.517000e+03 2.000000e-02
         vertex -1.577896e+04 2.517000e+03 6.776264e-18
      endloop
   endfacet
   facet normal 9.571369e-01 2.896358e-01 0.000000e+00
      outer loop
         vertex -1.577911e+04 2.517765e+03 2.000000e-02
         vertex -1.577900e+04 2.517390e+03 2.000000e-02
         vertex -1.577911e+04 2.517765e+03 -6.776264e-18
      endloop
   endfacet
   facet normal 9.571369e-01 2.896358e-01 0.000000e+00
      outer loop
         vertex -1.577911e+04 2.517765e+03 -6.776264e-18
         vertex -1.577900e+04 2.517390e+03 2.000000e-02
         vertex -1.577900e+04 2.517390e+03 -6.776264e-18
      endloop
   endfacet
   facet normal 8.818140e-01 4.715973e-01 0.000000e+00
      outer loop
         vertex -1.577930e+04 2.518111e+03 2.000000e-02
         vertex -1.577911e+04 2.517765e+03 2.000000e-02
         vertex -1.577930e+04 2.518111e+03 0.000000e+00
      endloop
   endfacet
   facet normal 8.818140e-01 4.715973e-01 0.000000e+00
      outer loop
         vertex -1.577930e+04 2.518111e+03 0.000000e+00
         vertex -1.577911e+04 2.517765e+03 2.000000e-02
         vertex -1.577911e+04 2.517765e+03 0.000000e+00
      endloop
   endfacet
   facet normal 7.727369e-01 6.347265e-01 0.000000e+00
      outer loop
         vertex -1.577955e+04 2.518414e+03 2.000000e-02
         vertex -1.577930e+04 2.518111e+03 2.000000e-02
         vertex -1.577955e+04 2.518414e+03 -6.776264e-18
      endloop
   endfacet
   facet normal 7.727369e-01 6.347265e-01 0.000000e+00
      outer loop
         vertex -1.577955e+04 2.518414e+03 -6.776264e-18
         vertex -1.577930e+04 2.518111e+03 2.000000e-02
         vertex -1.577930e+04 2.518111e+03 -6.776264e-18
      endloop
   endfacet
   facet normal 6.344284e-01 7.729817e-01 0.000000e+00
      outer loop
         vertex -1.577985e+04 2.518663e+03 2.000000e-02
         vertex -1.577955e+04 2.518414e+03 2.000000e-02
         vertex -1.577985e+04 2.518663e+03 -6.776264e-18
      endloop
   endfacet
   facet normal 6.344284e-01 7.729817e-01 0.000000e+00
      outer loop
         vertex -1.577985e+04 2.518663e+03 -6.776264e-18
         vertex -1.577955e+04 2.518414e+03 2.000000e-02
         vertex -1.577955e+04 2.518414e+03 -6.776264e-18
      endloop
   endfacet
   facet normal 4.723565e-01 8.814076e-01 0.000000e+00
      outer loop
         vertex -1.578020e+04 2.518848e+03 2.000000e-02
         vertex -1.577985e+04 2.518663e+03 2.000000e-02
         vertex -1.578020e+04 2.518848e+03 0.000000e+00
      endloop
   endfacet
   facet normal 4.723565e-01 8.814076e-01 0.000000e+00
      outer loop
         vertex -1.578020e+04 2.518848e+03 0.000000e+00
         vertex -1.577985e+04 2.518663e+03 2.000000e-02
         vertex -1.577985e+04 2.518663e+03 0.000000e+00
      endloop
   endfacet
   facet normal 2.902433e-01 9.569529e-01 0.000000e+00
      outer loop
         vertex -1.578057e+04 2.518962e+03 2.000000e-02
         vertex -1.578020e+04 2.518848e+03 2.000000e-02
         vertex -1.578057e+04 2.518962e+03 -6.776264e-18
      endloop
   endfacet
   facet normal 2.902433e-01 9.569529e-01 0.000000e+00
      outer loop
         vertex -1.578057e+04 2.518962e+03 -6.776264e-18
         vertex -1.578020e+04 2.518848e+03 2.000000e-02
         vertex -1.578020e+04 2.518848e+03 -6.776264e-18
      endloop
   endfacet
   facet normal 9.733513e-02 9.952517e-01 0.000000e+00
      outer loop
         vertex -1.578096e+04 2.519000e+03 2.000000e-02
         vertex -1.578057e+04 2.518962e+03 2.000000e-02
         vertex -1.578096e+04 2.519000e+03 -6.776264e-18
      endloop
   endfacet
   facet normal 9.733513e-02 9.952517e-01 0.000000e+00
      outer loop
         vertex -1.578096e+04 2.519000e+03 -6.776264e-18
         vertex -1.578057e+04 2.518962e+03 2.000000e-02
         vertex -1.578057e+04 2.518962e+03 -6.776264e-18
      endloop
   endfacet
   facet normal -9.733513e-02 9.952517e-01 0.000000e+00
      outer loop
         vertex -1.578135e+04 2.518962e+03 2.000000e-02
         vertex -1.578096e+04 2.519000e+03 2.000000e-02
         vertex -1.578135e+04 2.518962e+03 0.000000e+00
      endloop
   endfacet
   facet normal -9.733513e-02 9.952517e-01 0.000000e+00
      outer loop
         vertex -1.578135e+04 2.518962e+03 0.000000e+00
         vertex -1.578096e+04 2.519000e+03 2.000000e-02
         vertex -1.578096e+04 2.519000e+03 0.000000e+00
      endloop
   endfacet
   facet normal -2.909194e-01 9.567476e-01 0.000000e+00
      outer loop
         vertex -1.578173e+04 2.518848e+03 2.000000e-02
         vertex -1.578135e+04 2.518962e+03 2.000000e-02
         vertex -1.578173e+04 2.518848e+03 -6.776264e-18
      endloop
   endfacet
   facet normal -2.909194e-01 9.567476e-01 0.000000e+00
      outer loop
         vertex -1.578173e+04 2.518848e+03 -6.776264e-18
         vertex -1.578135e+04 2.518962e+03 2.000000e-02
         vertex -1.578135e+04 2.518962e+03 -6.776264e-18
      endloop
   endfacet
   facet normal -4.713447e-01 8.819491e-01 0.000000e+00
      outer loop
         vertex -1.578207e+04 2.518663e+03 2.000000e-02
         vertex -1.578173e+04 2.518848e+03 2.000000e-02
         vertex -1.578207e+04 2.518663e+03 0.000000e+00
      endloop
   endfacet
   facet normal -4.713447e-01 8.819491e-01 0.000000e+00
      outer loop
         vertex -1.578207e+04 2.518663e+03 0.000000e+00
         vertex -1.578173e+04 2.518848e+03 2.000000e-02
         vertex -1.578173e+04 2.518848e+03 0.000000e+00
      endloop
   endfacet
   facet normal -6.344284e-01 7.729817e-01 0.000000e+00
      outer loop
         vertex -1.578238e+04 2.518414e+03 2.000000e-02
         vertex -1.578207e+04 2.518663e+03 2.000000e-02
         vertex -1.578238e+04 2.518414e+03 -6.776264e-18
      endloop
   endfacet
   facet normal -6.344284e-01 7.729817e-01 0.000000e+00
      outer loop
         vertex -1.578238e+04 2.518414e+03 -6.776264e-18
         vertex -1.578207e+04 2.518663e+03 2.000000e-02
         vertex -1.578207e+04 2.518663e+03 -6.776264e-18
      endloop
   endfacet
   facet normal -7.727369e-01 6.347265e-01 0.000000e+00
      outer loop
         vertex -1.578262e+04 2.518111e+03 2.000000e-02
         vertex -1.578238e+04 2.518414e+03 2.000000e-02
         vertex -1.578262e+04 2.518111e+03 -6.776264e-18
      endloop
   endfacet
   facet normal -7.727369e-01 6.347265e-01 0.000000e+00
      outer loop
         vertex -1.578262e+04 2.518111e+03 -6.776264e-18
         vertex -1.578238e+04 2.518414e+03 2.000000e-02
         vertex -1.578238e+04 2.518414e+03 -6.776264e-18
      endloop
   endfacet
   facet normal -8.827721e-01 4.698015e-01 0.000000e+00
      outer loop
         vertex -1.578268e+04 2.518000e+03 2.000000e-02
         vertex -1.578262e+04 2.518111e+03 2.000000e-02
         vertex -1.578268e+04 2.518000e+03 0.000000e+00
      endloop
   endfacet
   facet normal -8.827721e-01 4.698015e-01 0.000000e+00
      outer loop
         vertex -1.578268e+04 2.518000e+03 0.000000e+00
         vertex -1.578262e+04 2.518111e+03 2.000000e-02
         vertex -1.578262e+04 2.518111e+03 0.000000e+00
      endloop
   endfacet
   facet normal -0.000000e+00 1.000000e+00 0.000000e+00
      outer loop
         vertex -1.578928e+04 2.518000e+03 2.000000e-02
         vertex -1.578268e+04 2.518000e+03 2.000000e-02
         vertex -1.578928e+04 2.518000e+03 0.000000e+00
      endloop
   endfacet
   facet normal 0.000000e+00 1.000000e+00 0.000000e+00
      outer loop
         vertex -1.578928e+04 2.518000e+03 0.000000e+00
         vertex -1.578268e+04 2.518000e+03 2.000000e-02
         vertex -1.578268e+04 2.518000e+03 0.000000e+00
      endloop
   endfacet
   facet normal -4.253293e-01 9.050387e-01 0.000000e+00
      outer loop
         vertex -1.579128e+04 2.517060e+03 2.000000e-02
         vertex -1.578928e+04 2.518000e+03 2.000000e-02
         vertex -1.579128e+04 2.517060e+03 0.000000e+00
      endloop
   endfacet
   facet normal -4.253293e-01 9.050387e-01 0.000000e+00
      outer loop
         vertex -1.579128e+04 2.517060e+03 0.000000e+00
         vertex -1.578928e+04 2.518000e+03 2.000000e-02
         vertex -1.578928e+04 2.518000e+03 0.000000e+00
      endloop
   endfacet
   facet normal -0.000000e+00 1.000000e+00 0.000000e+00
      outer loop
         vertex -1.579178e+04 2.517060e+03 2.000000e-02
         vertex -1.579128e+04 2.517060e+03 2.000000e-02
         vertex -1.579178e+04 2.517060e+03 0.000000e+00
      endloop
   endfacet
   facet normal 0.000000e+00 1.000000e+00 0.000000e+00
      outer loop
         vertex -1.579178e+04 2.517060e+03 0.000000e+00
         vertex -1.579128e+04 2.517060e+03 2.000000e-02
         vertex -1.579128e+04 2.517060e+03 0.000000e+00
      endloop
   endfacet
   facet normal -1.000000e+00 0.000000e+00 0.000000e+00
      outer loop
         vertex -1.579178e+04 2.516940e+03 2.000000e-02
         vertex -1.579178e+04 2.517060e+03 2.000000e-02
         vertex -1.579178e+04 2.516940e+03 0.000000e+00
      endloop
   endfacet
   facet normal -1.000000e+00 0.000000e+00 0.000000e+00
      outer loop
         vertex -1.579178e+04 2.516940e+03 0.000000e+00
         vertex -1.579178e+04 2.517060e+03 2.000000e-02
         vertex -1.579178e+04 2.517060e+03 0.000000e+00
      endloop
   endfacet
   facet normal -0.000000e+00 -1.000000e+00 -0.000000e+00
      outer loop
         vertex -1.579128e+04 2.516940e+03 2.000000e-02
         vertex -1.579178e+04 2.516940e+03 2.000000e-02
         vertex -1.579128e+04 2.516940e+03 0.000000e+00
      endloop
   endfacet
   facet normal 0.000000e+00 -1.000000e+00 0.000000e+00
      outer loop
         vertex -1.579128e+04 2.516940e+03 0.000000e+00
         vertex -1.579178e+04 2.516940e+03 2.000000e-02
         vertex -1.579178e+04 2.516940e+03 0.000000e+00
      endloop
   endfacet
   facet normal -4.254177e-01 -9.049971e-01 -0.000000e+00
      outer loop
         vertex -1.578928e+04 2.516000e+03 2.000000e-02
         vertex -1.579128e+04 2.516940e+03 2.000000e-02
         vertex -1.578928e+04 2.516000e+03 0.000000e+00
      endloop
   endfacet
   facet normal -4.254177e-01 -9.049971e-01 0.000000e+00
      outer loop
         vertex -1.578928e+04 2.516000e+03 0.000000e+00
         vertex -1.579128e+04 2.516940e+03 2.000000e-02
         vertex -1.579128e+04 2.516940e+03 0.000000e+00
      endloop
   endfacet
   facet normal -0.000000e+00 -1.000000e+00 -0.000000e+00
      outer loop
         vertex -1.578268e+04 2.516000e+03 2.000000e-02
         vertex -1.578928e+04 2.516000e+03 2.000000e-02
         vertex -1.578268e+04 2.516000e+03 0.000000e+00
      endloop
   endfacet
   facet normal 0.000000e+00 -1.000000e+00 0.000000e+00
      outer loop
         vertex -1.578268e+04 2.516000e+03 0.000000e+00
         vertex -1.578928e+04 2.516000e+03 2.000000e-02
         vertex -1.578928e+04 2.516000e+03 0.000000e+00
      endloop
   endfacet
   facet normal -8.827721e-01 -4.698015e-01 -0.000000e+00
      outer loop
         vertex -1.578262e+04 2.515889e+03 2.000000e-02
         vertex -1.578268e+04 2.516000e+03 2.000000e-02
         vertex -1.578262e+04 2.515889e+03 -6.776264e-18
      endloop
   endfacet
   facet normal -8.827721e-01 -4.698015e-01 0.000000e+00
      outer loop
         vertex -1.578262e+04 2.515889e+03 -6.776264e-18
         vertex -1.578268e+04 2.516000e+03 2.000000e-02
         vertex -1.578268e+04 2.516000e+03 -6.776264e-18
      endloop
   endfacet
   facet normal -7.727369e-01 -6.347265e-01 -0.000000e+00
      outer loop
         vertex -1.578238e+04 2.515586e+03 2.000000e-02
         vertex -1.578262e+04 2.515889e+03 2.000000e-02
         vertex -1.578238e+04 2.515586e+03 -6.776264e-18
      endloop
   endfacet
   facet normal -7.727369e-01 -6.347265e-01 0.000000e+00
      outer loop
         vertex -1.578238e+04 2.515586e+03 -6.776264e-18
         vertex -1.578262e+04 2.515889e+03 2.000000e-02
         vertex -1.578262e+04 2.515889e+03 -6.776264e-18
      endloop
   endfacet
   facet normal -6.344284e-01 -7.729817e-01 -0.000000e+00
      outer loop
         vertex -1.578207e+04 2.515337e+03 2.000000e-02
         vertex -1.578238e+04 2.515586e+03 2.000000e-02
         vertex -1.578207e+04 2.515337e+03 -6.776264e-18
      endloop
   endfacet
   facet normal -6.344284e-01 -7.729817e-01 0.000000e+00
      outer loop
         vertex -1.578207e+04 2.515337e+03 -6.776264e-18
         vertex -1.578238e+04 2.515586e+03 2.000000e-02
         vertex -1.578238e+04 2.515586e+03 -6.776264e-18
      endloop
   endfacet
   facet normal -4.713447e-01 -8.819491e-01 -0.000000e+00
      outer loop
         vertex -1.578173e+04 2.515152e+03 2.000000e-02
         vertex -1.578207e+04 2.515337e+03 2.000000e-02
         vertex -1.578173e+04 2.515152e+03 0.000000e+00
      endloop
   endfacet
   facet normal -4.713447e-01 -8.819491e-01 0.000000e+00
      outer loop
         vertex -1.578173e+04 2.515152e+03 0.000000e+00
         vertex -1.578207e+04 2.515337e+03 2.000000e-02
         vertex -1.578207e+04 2.515337e+03 0.000000e+00
      endloop
   endfacet
   facet normal -2.909194e-01 -9.567476e-01 -0.000000e+00
      outer loop
         vertex -1.578135e+04 2.515038e+03 2.000000e-02
         vertex -1.578173e+04 2.515152e+03 2.000000e-02
         vertex -1.578135e+04 2.515038e+03 -6.776264e-18
      endloop
   endfacet
   facet normal -2.909194e-01 -9.567476e-01 0.000000e+00
      outer loop
         vertex -1.578135e+04 2.515038e+03 -6.776264e-18
         vertex -1.578173e+04 2.515152e+03 2.000000e-02
         vertex -1.578173e+04 2.515152e+03 -6.776264e-18
      endloop
   endfacet
   facet normal -9.673249e-02 -9.953104e-01 -0.000000e+00
      outer loop
         vertex -1.578096e+04 2.515000e+03 2.000000e-02
         vertex -1.578135e+04 2.515038e+03 2.000000e-02
         vertex -1.578096e+04 2.515000e+03 0.000000e+00
      endloop
   endfacet
   facet normal -9.673249e-02 -9.953104e-01 0.000000e+00
      outer loop
         vertex -1.578096e+04 2.515000e+03 0.000000e+00
         vertex -1.578135e+04 2.515038e+03 2.000000e-02
         vertex -1.578135e+04 2.515038e+03 0.000000e+00
      endloop
   endfacet
   facet normal 0.000000e+00 0.000000e+00 1.000000e+00
      outer loop
         vertex -1.577985e+04 2.515337e+03 2.000000e-02
         vertex -1.577955e+04 2.515586e+03 2.000000e-02
         vertex -1.577896e+04 2.517000e+03 2.000000e-02
      endloop
   endfacet
   facet normal 0.000000e+00 0.000000e+00 1.000000e+00
      outer loop
         vertex -1.578268e+04 2.516000e+03 2.000000e-02
         vertex -1.578096e+04 2.519000e+03 2.000000e-02
         vertex -1.578135e+04 2.518962e+03 2.000000e-02
      endloop
   endfacet
   facet normal 0.000000e+00 0.000000e+00 1.000000e+00
      outer loop
         vertex -1.578135e+04 2.518962e+03 2.000000e-02
         vertex -1.578173e+04 2.518848e+03 2.000000e-02
         vertex -1.578268e+04 2.516000e+03 2.000000e-02
      endloop
   endfacet
   facet normal 0.000000e+00 0.000000e+00 1.000000e+00
      outer loop
         vertex -1.578268e+04 2.516000e+03 2.000000e-02
         vertex -1.578173e+04 2.518848e+03 2.000000e-02
         vertex -1.578207e+04 2.518663e+03 2.000000e-02
      endloop
   endfacet
   facet normal 0.000000e+00 0.000000e+00 1.000000e+00
      outer loop
         vertex -1.578268e+04 2.516000e+03 2.000000e-02
         vertex -1.578207e+04 2.518663e+03 2.000000e-02
         vertex -1.578238e+04 2.518414e+03 2.000000e-02
      endloop
   endfacet
   facet normal 0.000000e+00 0.000000e+00 1.000000e+00
      outer loop
         vertex -1.578238e+04 2.518414e+03 2.000000e-02
         vertex -1.578262e+04 2.518111e+03 2.000000e-02
         vertex -1.578268e+04 2.516000e+03 2.000000e-02
      endloop
   endfacet
   facet normal 0.000000e+00 0.000000e+00 1.000000e+00
      outer loop
         vertex -1.578268e+04 2.516000e+03 2.000000e-02
         vertex -1.578262e+04 2.518111e+03 2.000000e-02
         vertex -1.578268e+04 2.518000e+03 2.000000e-02
      endloop
   endfacet
   facet normal 0.000000e+00 -0.000000e+00 1.000000e+00
      outer loop
         vertex -1.578268e+04 2.516000e+03 2.000000e-02
         vertex -1.578268e+04 2.518000e+03 2.000000e-02
         vertex -1.578928e+04 2.516000e+03 2.000000e-02
      endloop
   endfacet
   facet normal 0.000000e+00 0.000000e+00 1.000000e+00
      outer loop
         vertex -1.578928e+04 2.516000e+03 2.000000e-02
         vertex -1.578268e+04 2.518000e+03 2.000000e-02
         vertex -1.578928e+04 2.518000e+03 2.000000e-02
      endloop
   endfacet
   facet normal 0.000000e+00 -0.000000e+00 1.000000e+00
      outer loop
         vertex -1.578928e+04 2.516000e+03 2.000000e-02
         vertex -1.578928e+04 2.518000e+03 2.000000e-02
         vertex -1.579128e+04 2.516940e+03 2.000000e-02
      endloop
   endfacet
   facet normal 0.000000e+00 0.000000e+00 1.000000e+00
      outer loop
         vertex -1.579128e+04 2.516940e+03 2.000000e-02
         vertex -1.578928e+04 2.518000e+03 2.000000e-02
         vertex -1.579128e+04 2.517060e+03 2.000000e-02
      endloop
   endfacet
   facet normal 0.000000e+00 -0.000000e+00 1.000000e+00
      outer loop
         vertex -1.579128e+04 2.516940e+03 2.000000e-02
         vertex -1.579128e+04 2.517060e+03 2.000000e-02
         vertex -1.579178e+04 2.516940e+03 2.000000e-02
      endloop
   endfacet
   facet normal 0.000000e+00 0.000000e+00 1.000000e+00
      outer loop
         vertex -1.579178e+04 2.516940e+03 2.000000e-02
         vertex -1.579128e+04 2.517060e+03 2.000000e-02
         vertex -1.579178e+04 2.517060e+03 2.000000e-02
      endloop
   endfacet
   facet normal -0.000000e+00 0.000000e+00 1.000000e+00
      outer loop
         vertex -1.578268e+04 2.516000e+03 2.000000e-02
         vertex -1.578262e+04 2.515889e+03 2.000000e-02
         vertex -1.578096e+04 2.519000e+03 2.000000e-02
      endloop
   endfacet
   facet normal 0.000000e+00 0.000000e+00 1.000000e+00
      outer loop
         vertex -1.578096e+04 2.519000e+03 2.000000e-02
         vertex -1.578262e+04 2.515889e+03 2.000000e-02
         vertex -1.578238e+04 2.515586e+03 2.000000e-02
      endloop
   endfacet
   facet normal 0.000000e+00 0.000000e+00 1.000000e+00
      outer loop
         vertex -1.578096e+04 2.519000e+03 2.000000e-02
         vertex -1.578238e+04 2.515586e+03 2.000000e-02
         vertex -1.578207e+04 2.515337e+03 2.000000e-02
      endloop
   endfacet
   facet normal -0.000000e+00 0.000000e+00 1.000000e+00
      outer loop
         vertex -1.578207e+04 2.515337e+03 2.000000e-02
         vertex -1.578173e+04 2.515152e+03 2.000000e-02
         vertex -1.578096e+04 2.519000e+03 2.000000e-02
      endloop
   endfacet
   facet normal 0.000000e+00 0.000000e+00 1.000000e+00
      outer loop
         vertex -1.578096e+04 2.519000e+03 2.000000e-02
         vertex -1.578173e+04 2.515152e+03 2.000000e-02
         vertex -1.578135e+04 2.515038e+03 2.000000e-02
      endloop
   endfacet
   facet normal 0.000000e+00 0.000000e+00 1.000000e+00
      outer loop
         vertex -1.578096e+04 2.519000e+03 2.000000e-02
         vertex -1.578135e+04 2.515038e+03 2.000000e-02
         vertex -1.578096e+04 2.515000e+03 2.000000e-02
      endloop
   endfacet
   facet normal 0.000000e+00 -0.000000e+00 1.000000e+00
      outer loop
         vertex -1.577985e+04 2.515337e+03 2.000000e-02
         vertex -1.577896e+04 2.517000e+03 2.000000e-02
         vertex -1.578020e+04 2.515152e+03 2.000000e-02
      endloop
   endfacet
   facet normal 0.000000e+00 0.000000e+00 1.000000e+00
      outer loop
         vertex -1.577900e+04 2.517390e+03 2.000000e-02
         vertex -1.577911e+04 2.517765e+03 2.000000e-02
         vertex -1.578096e+04 2.515000e+03 2.000000e-02
      endloop
   endfacet
   facet normal 0.000000e+00 0.000000e+00 1.000000e+00
      outer loop
         vertex -1.577955e+04 2.515586e+03 2.000000e-02
         vertex -1.577930e+04 2.515889e+03 2.000000e-02
         vertex -1.577896e+04 2.517000e+03 2.000000e-02
      endloop
   endfacet
   facet normal 0.000000e+00 0.000000e+00 1.000000e+00
      outer loop
         vertex -1.577896e+04 2.517000e+03 2.000000e-02
         vertex -1.577930e+04 2.515889e+03 2.000000e-02
         vertex -1.577911e+04 2.516235e+03 2.000000e-02
      endloop
   endfacet
   facet normal 0.000000e+00 0.000000e+00 1.000000e+00
      outer loop
         vertex -1.577896e+04 2.517000e+03 2.000000e-02
         vertex -1.577911e+04 2.516235e+03 2.000000e-02
         vertex -1.577900e+04 2.516610e+03 2.000000e-02
      endloop
   endfacet
   facet normal 0.000000e+00 0.000000e+00 1.000000e+00
      outer loop
         vertex -1.577911e+04 2.517765e+03 2.000000e-02
         vertex -1.577930e+04 2.518111e+03 2.000000e-02
         vertex -1.578096e+04 2.515000e+03 2.000000e-02
      endloop
   endfacet
   facet normal 0.000000e+00 0.000000e+00 1.000000e+00
      outer loop
         vertex -1.578096e+04 2.515000e+03 2.000000e-02
         vertex -1.577930e+04 2.518111e+03 2.000000e-02
         vertex -1.577955e+04 2.518414e+03 2.000000e-02
      endloop
   endfacet
   facet normal 0.000000e+00 0.000000e+00 1.000000e+00
      outer loop
         vertex -1.578096e+04 2.515000e+03 2.000000e-02
         vertex -1.577955e+04 2.518414e+03 2.000000e-02
         vertex -1.577985e+04 2.518663e+03 2.000000e-02
      endloop
   endfacet
   facet normal 0.000000e+00 0.000000e+00 1.000000e+00
      outer loop
         vertex -1.577900e+04 2.517390e+03 2.000000e-02
         vertex -1.578096e+04 2.515000e+03 2.000000e-02
         vertex -1.577896e+04 2.517000e+03 2.000000e-02
      endloop
   endfacet
   facet normal 0.000000e+00 0.000000e+00 1.000000e+00
      outer loop
         vertex -1.577896e+04 2.517000e+03 2.000000e-02
         vertex -1.578096e+04 2.515000e+03 2.000000e-02
         vertex -1.578057e+04 2.515038e+03 2.000000e-02
      endloop
   endfacet
   facet normal 0.000000e+00 0.000000e+00 1.000000e+00
      outer loop
         vertex -1.577896e+04 2.517000e+03 2.000000e-02
         vertex -1.578057e+04 2.515038e+03 2.000000e-02
         vertex -1.578020e+04 2.515152e+03 2.000000e-02
      endloop
   endfacet
   facet normal 0.000000e+00 0.000000e+00 1.000000e+00
      outer loop
         vertex -1.577985e+04 2.518663e+03 2.000000e-02
         vertex -1.578020e+04 2.518848e+03 2.000000e-02
         vertex -1.578096e+04 2.515000e+03 2.000000e-02
      endloop
   endfacet
   facet normal 0.000000e+00 0.000000e+00 1.000000e+00
      outer loop
         vertex -1.578096e+04 2.515000e+03 2.000000e-02
         vertex -1.578020e+04 2.518848e+03 2.000000e-02
         vertex -1.578057e+04 2.518962e+03 2.000000e-02
      endloop
   endfacet
   facet normal 0.000000e+00 0.000000e+00 1.000000e+00
      outer loop
         vertex -1.578096e+04 2.515000e+03 2.000000e-02
         vertex -1.578057e+04 2.518962e+03 2.000000e-02
         vertex -1.578096e+04 2.519000e+03 2.000000e-02
      endloop
   endfacet
   facet normal 0.000000e+00 0.000000e+00 -1.000000e+00
      outer loop
         vertex -1.577896e+04 2.517000e+03 0.000000e+00
         vertex -1.577900e+04 2.516610e+03 0.000000e+00
         vertex -1.577911e+04 2.516235e+03 0.000000e+00
      endloop
   endfacet
   facet normal 0.000000e+00 0.000000e+00 -1.000000e+00
      outer loop
         vertex -1.578135e+04 2.515038e+03 0.000000e+00
         vertex -1.578173e+04 2.515152e+03 0.000000e+00
         vertex -1.578096e+04 2.519000e+03 0.000000e+00
      endloop
   endfacet
   facet normal 0.000000e+00 0.000000e+00 -1.000000e+00
      outer loop
         vertex -1.578096e+04 2.519000e+03 0.000000e+00
         vertex -1.578173e+04 2.515152e+03 0.000000e+00
         vertex -1.578207e+04 2.515337e+03 0.000000e+00
      endloop
   endfacet
   facet normal 0.000000e+00 0.000000e+00 -1.000000e+00
      outer loop
         vertex -1.578096e+04 2.519000e+03 0.000000e+00
         vertex -1.578207e+04 2.515337e+03 0.000000e+00
         vertex -1.578238e+04 2.515586e+03 0.000000e+00
      endloop
   endfacet
   facet normal 0.000000e+00 0.000000e+00 -1.000000e+00
      outer loop
         vertex -1.579178e+04 2.516940e+03 0.000000e+00
         vertex -1.579178e+04 2.517060e+03 0.000000e+00
         vertex -1.579128e+04 2.516940e+03 0.000000e+00
      endloop
   endfacet
   facet normal 0.000000e+00 0.000000e+00 -1.000000e+00
      outer loop
         vertex -1.579128e+04 2.516940e+03 0.000000e+00
         vertex -1.579178e+04 2.517060e+03 0.000000e+00
         vertex -1.579128e+04 2.517060e+03 0.000000e+00
      endloop
   endfacet
   facet normal 0.000000e+00 0.000000e+00 -1.000000e+00
      outer loop
         vertex -1.579128e+04 2.516940e+03 0.000000e+00
         vertex -1.579128e+04 2.517060e+03 0.000000e+00
         vertex -1.578928e+04 2.516000e+03 0.000000e+00
      endloop
   endfacet
   facet normal 0.000000e+00 0.000000e+00 -1.000000e+00
      outer loop
         vertex -1.578928e+04 2.516000e+03 0.000000e+00
         vertex -1.579128e+04 2.517060e+03 0.000000e+00
         vertex -1.578928e+04 2.518000e+03 0.000000e+00
      endloop
   endfacet
   facet normal 0.000000e+00 0.000000e+00 -1.000000e+00
      outer loop
         vertex -1.578928e+04 2.516000e+03 0.000000e+00
         vertex -1.578928e+04 2.518000e+03 0.000000e+00
         vertex -1.578268e+04 2.516000e+03 0.000000e+00
      endloop
   endfacet
   facet normal 0.000000e+00 0.000000e+00 -1.000000e+00
      outer loop
         vertex -1.578268e+04 2.516000e+03 0.000000e+00
         vertex -1.578928e+04 2.518000e+03 0.000000e+00
         vertex -1.578268e+04 2.518000e+03 0.000000e+00
      endloop
   endfacet
   facet normal 0.000000e+00 0.000000e+00 -1.000000e+00
      outer loop
         vertex -1.578268e+04 2.516000e+03 0.000000e+00
         vertex -1.578268e+04 2.518000e+03 0.000000e+00
         vertex -1.578262e+04 2.518111e+03 0.000000e+00
      endloop
   endfacet
   facet normal 0.000000e+00 -0.000000e+00 -1.000000e+00
      outer loop
         vertex -1.578262e+04 2.518111e+03 0.000000e+00
         vertex -1.578238e+04 2.518414e+03 0.000000e+00
         vertex -1.578268e+04 2.516000e+03 0.000000e+00
      endloop
   endfacet
   facet normal 0.000000e+00 0.000000e+00 -1.000000e+00
      outer loop
         vertex -1.578268e+04 2.516000e+03 0.000000e+00
         vertex -1.578238e+04 2.518414e+03 0.000000e+00
         vertex -1.578207e+04 2.518663e+03 0.000000e+00
      endloop
   endfacet
   facet normal 0.000000e+00 0.000000e+00 -1.000000e+00
      outer loop
         vertex -1.578268e+04 2.516000e+03 0.000000e+00
         vertex -1.578207e+04 2.518663e+03 0.000000e+00
         vertex -1.578173e+04 2.518848e+03 0.000000e+00
      endloop
   endfacet
   facet normal 0.000000e+00 0.000000e+00 -1.000000e+00
      outer loop
         vertex -1.578238e+04 2.515586e+03 0.000000e+00
         vertex -1.578262e+04 2.515889e+03 0.000000e+00
         vertex -1.578096e+04 2.519000e+03 0.000000e+00
      endloop
   endfacet
   facet normal 0.000000e+00 0.000000e+00 -1.000000e+00
      outer loop
         vertex -1.578096e+04 2.519000e+03 0.000000e+00
         vertex -1.578262e+04 2.515889e+03 0.000000e+00
         vertex -1.578268e+04 2.516000e+03 0.000000e+00
      endloop
   endfacet
   facet normal 0.000000e+00 0.000000e+00 -1.000000e+00
      outer loop
         vertex -1.578096e+04 2.519000e+03 0.000000e+00
         vertex -1.578268e+04 2.516000e+03 0.000000e+00
         vertex -1.578135e+04 2.518962e+03 0.000000e+00
      endloop
   endfacet
   facet normal 0.000000e+00 0.000000e+00 -1.000000e+00
      outer loop
         vertex -1.578135e+04 2.518962e+03 0.000000e+00
         vertex -1.578268e+04 2.516000e+03 0.000000e+00
         vertex -1.578173e+04 2.518848e+03 0.000000e+00
      endloop
   endfacet
   facet normal 0.000000e+00 -0.000000e+00 -1.000000e+00
      outer loop
         vertex -1.578020e+04 2.518848e+03 0.000000e+00
         vertex -1.577985e+04 2.518663e+03 0.000000e+00
         vertex -1.578096e+04 2.515000e+03 0.000000e+00
      endloop
   endfacet
   facet normal 0.000000e+00 0.000000e+00 -1.000000e+00
      outer loop
         vertex -1.578096e+04 2.515000e+03 0.000000e+00
         vertex -1.577985e+04 2.518663e+03 0.000000e+00
         vertex -1.577955e+04 2.518414e+03 0.000000e+00
      endloop
   endfacet
   facet normal 0.000000e+00 0.000000e+00 -1.000000e+00
      outer loop
         vertex -1.578096e+04 2.515000e+03 0.000000e+00
         vertex -1.577955e+04 2.518414e+03 0.000000e+00
         vertex -1.577930e+04 2.518111e+03 0.000000e+00
      endloop
   endfacet
   facet normal 0.000000e+00 -0.000000e+00 -1.000000e+00
      outer loop
         vertex -1.577930e+04 2.518111e+03 0.000000e+00
         vertex -1.577911e+04 2.517765e+03 0.000000e+00
         vertex -1.578096e+04 2.515000e+03 0.000000e+00
      endloop
   endfacet
   facet normal 0.000000e+00 0.000000e+00 -1.000000e+00
      outer loop
         vertex -1.578096e+04 2.515000e+03 0.000000e+00
         vertex -1.577911e+04 2.517765e+03 0.000000e+00
         vertex -1.577900e+04 2.517390e+03 0.000000e+00
      endloop
   endfacet
   facet normal 0.000000e+00 0.000000e+00 -1.000000e+00
      outer loop
         vertex -1.578096e+04 2.515000e+03 0.000000e+00
         vertex -1.577900e+04 2.517390e+03 0.000000e+00
         vertex -1.577896e+04 2.517000e+03 0.000000e+00
      endloop
   endfacet
   facet normal -0.000000e+00 0.000000e+00 -1.000000e+00
      outer loop
         vertex -1.577911e+04 2.516235e+03 0.000000e+00
         vertex -1.577930e+04 2.515889e+03 0.000000e+00
         vertex -1.577896e+04 2.517000e+03 0.000000e+00
      endloop
   endfacet
   facet normal 0.000000e+00 0.000000e+00 -1.000000e+00
      outer loop
         vertex -1.577896e+04 2.517000e+03 0.000000e+00
         vertex -1.577930e+04 2.515889e+03 0.000000e+00
         vertex -1.577955e+04 2.515586e+03 0.000000e+00
      endloop
   endfacet
   facet normal 0.000000e+00 0.000000e+00 -1.000000e+00
      outer loop
         vertex -1.577896e+04 2.517000e+03 0.000000e+00
         vertex -1.577955e+04 2.515586e+03 0.000000e+00
         vertex -1.577985e+04 2.515337e+03 0.000000e+00
      endloop
   endfacet
   facet normal 0.000000e+00 0.000000e+00 -1.000000e+00
      outer loop
         vertex -1.578135e+04 2.515038e+03 0.000000e+00
         vertex -1.578096e+04 2.519000e+03 0.000000e+00
         vertex -1.578096e+04 2.515000e+03 0.000000e+00
      endloop
   endfacet
   facet normal 0.000000e+00 0.000000e+00 -1.000000e+00
      outer loop
         vertex -1.578096e+04 2.515000e+03 0.000000e+00
         vertex -1.578096e+04 2.519000e+03 0.000000e+00
         vertex -1.578057e+04 2.518962e+03 0.000000e+00
      endloop
   endfacet
   facet normal 0.000000e+00 0.000000e+00 -1.000000e+00
      outer loop
         vertex -1.578096e+04 2.515000e+03 0.000000e+00
         vertex -1.578057e+04 2.518962e+03 0.000000e+00
         vertex -1.578020e+04 2.518848e+03 0.000000e+00
      endloop
   endfacet
   facet normal -0.000000e+00 0.000000e+00 -1.000000e+00
      outer loop
         vertex -1.577985e+04 2.515337e+03 0.000000e+00
         vertex -1.578020e+04 2.515152e+03 0.000000e+00
         vertex -1.577896e+04 2.517000e+03 0.000000e+00
      endloop
   endfacet
   facet normal 0.000000e+00 0.000000e+00 -1.000000e+00
      outer loop
         vertex -1.577896e+04 2.517000e+03 0.000000e+00
         vertex -1.578020e+04 2.515152e+03 0.000000e+00
         vertex -1.578057e+04 2.515038e+03 0.000000e+00
      endloop
   endfacet
   facet normal 0.000000e+00 0.000000e+00 -1.000000e+00
      outer loop
         vertex -1.577896e+04 2.517000e+03 0.000000e+00
         vertex -1.578057e+04 2.515038e+03 0.000000e+00
         vertex -1.578096e+04 2.515000e+03 0.000000e+00
      endloop
   endfacet
endsolid single_squat_BE5