solid single_squat_BE2
   facet normal 9.673249e-02 -9.953104e-01 0.000000e+00
      outer loop
         vertex -1.580065e+04 2.515038e+03 2.000000e-02
         vertex -1.580104e+04 2.515000e+03 2.000000e-02
         vertex -1.580065e+04 2.515038e+03 0.000000e+00
      endloop
   endfacet
   facet normal 9.673249e-02 -9.953104e-01 0.000000e+00
      outer loop
         vertex -1.580065e+04 2.515038e+03 0.000000e+00
         vertex -1.580104e+04 2.515000e+03 2.000000e-02
         vertex -1.580104e+04 2.515000e+03 0.000000e+00
      endloop
   endfacet
   facet normal 2.909194e-01 -9.567476e-01 0.000000e+00
      outer loop
         vertex -1.580027e+04 2.515152e+03 2.000000e-02
         vertex -1.580065e+04 2.515038e+03 2.000000e-02
         vertex -1.580027e+04 2.515152e+03 -6.776264e-18
      endloop
   endfacet
   facet normal 2.909194e-01 -9.567476e-01 0.000000e+00
      outer loop
         vertex -1.580027e+04 2.515152e+03 -6.776264e-18
         vertex -1.580065e+04 2.515038e+03 2.000000e-02
         vertex -1.580065e+04 2.515038e+03 -6.776264e-18
      endloop
   endfacet
   facet normal 4.713447e-01 -8.819491e-01 0.000000e+00
      outer loop
         vertex -1.579993e+04 2.515337e+03 2.000000e-02
         vertex -1.580027e+04 2.515152e+03 2.000000e-02
         vertex -1.579993e+04 2.515337e+03 0.000000e+00
      endloop
   endfacet
   facet normal 4.713447e-01 -8.819491e-01 0.000000e+00
      outer loop
         vertex -1.579993e+04 2.515337e+03 0.000000e+00
         vertex -1.580027e+04 2.515152e+03 2.000000e-02
         vertex -1.580027e+04 2.515152e+03 0.000000e+00
      endloop
   endfacet
   facet normal 6.356219e-01 -7.720005e-01 0.000000e+00
      outer loop
         vertex -1.579963e+04 2.515586e+03 2.000000e-02
         vertex -1.579993e+04 2.515337e+03 2.000000e-02
         vertex -1.579963e+04 2.515586e+03 -6.776264e-18
      endloop
   endfacet
   facet normal 6.356219e-01 -7.720005e-01 0.000000e+00
      outer loop
         vertex -1.579963e+04 2.515586e+03 -6.776264e-18
         vertex -1.579993e+04 2.515337e+03 2.000000e-02
         vertex -1.579993e+04 2.515337e+03 -6.776264e-18
      endloop
   endfacet
   facet normal 7.715446e-01 -6.361752e-01 0.000000e+00
      outer loop
         vertex -1.579938e+04 2.515889e+03 2.000000e-02
         vertex -1.579963e+04 2.515586e+03 2.000000e-02
         vertex -1.579938e+04 2.515889e+03 -6.776264e-18
      endloop
   endfacet
   facet normal 7.715446e-01 -6.361752e-01 0.000000e+00
      outer loop
         vertex -1.579938e+04 2.515889e+03 -6.776264e-18
         vertex -1.579963e+04 2.515586e+03 2.000000e-02
         vertex -1.579963e+04 2.515586e+03 -6.776264e-18
      endloop
   endfacet
   facet normal 8.859059e-01 -4.638649e-01 0.000000e+00
      outer loop
         vertex -1.579932e+04 2.516000e+03 2.000000e-02
         vertex -1.579938e+04 2.515889e+03 2.000000e-02
         vertex -1.579932e+04 2.516000e+03 -6.776264e-18
      endloop
   endfacet
   facet normal 8.859059e-01 -4.638649e-01 0.000000e+00
      outer loop
         vertex -1.579932e+04 2.516000e+03 -6.776264e-18
         vertex -1.579938e+04 2.515889e+03 2.000000e-02
         vertex -1.579938e+04 2.515889e+03 -6.776264e-18
      endloop
   endfacet
   facet normal -0.000000e+00 -1.000000e+00 -0.000000e+00
      outer loop
         vertex -1.579200e+04 2.516000e+03 2.000000e-02
         vertex -1.579932e+04 2.516000e+03 2.000000e-02
         vertex -1.579200e+04 2.516000e+03 0.000000e+00
      endloop
   endfacet
   facet normal 0.000000e+00 -1.000000e+00 0.000000e+00
      outer loop
         vertex -1.579200e+04 2.516000e+03 0.000000e+00
         vertex -1.579932e+04 2.516000e+03 2.000000e-02
         vertex -1.579932e+04 2.516000e+03 0.000000e+00
      endloop
   endfacet
   facet normal 1.000000e+00 0.000000e+00 0.000000e+00
      outer loop
         vertex -1.579200e+04 2.518000e+03 2.000000e-02
         vertex -1.579200e+04 2.516000e+03 2.000000e-02
         vertex -1.579200e+04 2.518000e+03 0.000000e+00
      endloop
   endfacet
   facet normal 1.000000e+00 0.000000e+00 0.000000e+00
      outer loop
         vertex -1.579200e+04 2.518000e+03 0.000000e+00
         vertex -1.579200e+04 2.516000e+03 2.000000e-02
         vertex -1.579200e+04 2.516000e+03 0.000000e+00
      endloop
   endfacet
   facet normal -0.000000e+00 1.000000e+00 0.000000e+00
      outer loop
         vertex -1.579932e+04 2.518000e+03 2.000000e-02
         vertex -1.579200e+04 2.518000e+03 2.000000e-02
         vertex -1.579932e+04 2.518000e+03 0.000000e+00
      endloop
   endfacet
   facet normal 0.000000e+00 1.000000e+00 0.000000e+00
      outer loop
         vertex -1.579932e+04 2.518000e+03 0.000000e+00
         vertex -1.579200e+04 2.518000e+03 2.000000e-02
         vertex -1.579200e+04 2.518000e+03 0.000000e+00
      endloop
   endfacet
   facet normal 8.859059e-01 4.638649e-01 0.000000e+00
      outer loop
         vertex -1.579938e+04 2.518111e+03 2.000000e-02
         vertex -1.579932e+04 2.518000e+03 2.000000e-02
         vertex -1.579938e+04 2.518111e+03 0.000000e+00
      endloop
   endfacet
   facet normal 8.859059e-01 4.638649e-01 0.000000e+00
      outer loop
         vertex -1.579938e+04 2.518111e+03 0.000000e+00
         vertex -1.579932e+04 2.518000e+03 2.000000e-02
         vertex -1.579932e+04 2.518000e+03 0.000000e+00
      endloop
   endfacet
   facet normal 7.715446e-01 6.361752e-01 0.000000e+00
      outer loop
         vertex -1.579963e+04 2.518414e+03 2.000000e-02
         vertex -1.579938e+04 2.518111e+03 2.000000e-02
         vertex -1.579963e+04 2.518414e+03 -6.776264e-18
      endloop
   endfacet
   facet normal 7.715446e-01 6.361752e-01 0.000000e+00
      outer loop
         vertex -1.579963e+04 2.518414e+03 -6.776264e-18
         vertex -1.579938e+04 2.518111e+03 2.000000e-02
         vertex -1.579938e+04 2.518111e+03 -6.776264e-18
      endloop
   endfacet
   facet normal 6.356219e-01 7.720005e-01 0.000000e+00
      outer loop
         vertex -1.579993e+04 2.518663e+03 2.000000e-02
         vertex -1.579963e+04 2.518414e+03 2.000000e-02
         vertex -1.579993e+04 2.518663e+03 -6.776264e-18
      endloop
   endfacet
   facet normal 6.356219e-01 7.720005e-01 0.000000e+00
      outer loop
         vertex -1.579993e+04 2.518663e+03 -6.776264e-18
         vertex -1.579963e+04 2.518414e+03 2.000000e-02
         vertex -1.579963e+04 2.518414e+03 -6.776264e-18
      endloop
   endfacet
   facet normal 4.713447e-01 8.819491e-01 0.000000e+00
      outer loop
         vertex -1.580027e+04 2.518848e+03 2.000000e-02
         vertex -1.579993e+04 2.518663e+03 2.000000e-02
         vertex -1.580027e+04 2.518848e+03 0.000000e+00
      endloop
   endfacet
   facet normal 4.713447e-01 8.819491e-01 0.000000e+00
      outer loop
         vertex -1.580027e+04 2.518848e+03 0.000000e+00
         vertex -1.579993e+04 2.518663e+03 2.000000e-02
         vertex -1.579993e+04 2.518663e+03 0.000000e+00
      endloop
   endfacet
   facet normal 2.909194e-01 9.567476e-01 0.000000e+00
      outer loop
         vertex -1.580065e+04 2.518962e+03 2.000000e-02
         vertex -1.580027e+04 2.518848e+03 2.000000e-02
         vertex -1.580065e+04 2.518962e+03 -6.776264e-18
      endloop
   endfacet
   facet normal 2.909194e-01 9.567476e-01 0.000000e+00
      outer loop
         vertex -1.580065e+04 2.518962e+03 -6.776264e-18
         vertex -1.580027e+04 2.518848e+03 2.000000e-02
         vertex -1.580027e+04 2.518848e+03 -6.776264e-18
      endloop
   endfacet
   facet normal 9.733513e-02 9.952517e-01 0.000000e+00
      outer loop
         vertex -1.580104e+04 2.519000e+03 2.000000e-02
         vertex -1.580065e+04 2.518962e+03 2.000000e-02
         vertex -1.580104e+04 2.519000e+03 0.000000e+00
      endloop
   endfacet
   facet normal 9.733513e-02 9.952517e-01 0.000000e+00
      outer loop
         vertex -1.580104e+04 2.519000e+03 0.000000e+00
         vertex -1.580065e+04 2.518962e+03 2.000000e-02
         vertex -1.580065e+04 2.518962e+03 0.000000e+00
      endloop
   endfacet
   facet normal -9.733513e-02 9.952517e-01 0.000000e+00
      outer loop
         vertex -1.580143e+04 2.518962e+03 2.000000e-02
         vertex -1.580104e+04 2.519000e+03 2.000000e-02
         vertex -1.580143e+04 2.518962e+03 -6.776264e-18
      endloop
   endfacet
   facet normal -9.733513e-02 9.952517e-01 0.000000e+00
      outer loop
         vertex -1.580143e+04 2.518962e+03 -6.776264e-18
         vertex -1.580104e+04 2.519000e+03 2.000000e-02
         vertex -1.580104e+04 2.519000e+03 -6.776264e-18
      endloop
   endfacet
   facet normal -2.902433e-01 9.569529e-01 0.000000e+00
      outer loop
         vertex -1.580180e+04 2.518848e+03 2.000000e-02
         vertex -1.580143e+04 2.518962e+03 2.000000e-02
         vertex -1.580180e+04 2.518848e+03 -6.776264e-18
      endloop
   endfacet
   facet normal -2.902433e-01 9.569529e-01 0.000000e+00
      outer loop
         vertex -1.580180e+04 2.518848e+03 -6.776264e-18
         vertex -1.580143e+04 2.518962e+03 2.000000e-02
         vertex -1.580143e+04 2.518962e+03 -6.776264e-18
      endloop
   endfacet
   facet normal -4.723565e-01 8.814076e-01 0.000000e+00
      outer loop
         vertex -1.580215e+04 2.518663e+03 2.000000e-02
         vertex -1.580180e+04 2.518848e+03 2.000000e-02
         vertex -1.580215e+04 2.518663e+03 0.000000e+00
      endloop
   endfacet
   facet normal -4.723565e-01 8.814076e-01 0.000000e+00
      outer loop
         vertex -1.580215e+04 2.518663e+03 0.000000e+00
         vertex -1.580180e+04 2.518848e+03 2.000000e-02
         vertex -1.580180e+04 2.518848e+03 0.000000e+00
      endloop
   endfacet
   facet normal -6.344284e-01 7.729817e-01 0.000000e+00
      outer loop
         vertex -1.580245e+04 2.518414e+03 2.000000e-02
         vertex -1.580215e+04 2.518663e+03 2.000000e-02
         vertex -1.580245e+04 2.518414e+03 -6.776264e-18
      endloop
   endfacet
   facet normal -6.344284e-01 7.729817e-01 0.000000e+00
      outer loop
         vertex -1.580245e+04 2.518414e+03 -6.776264e-18
         vertex -1.580215e+04 2.518663e+03 2.000000e-02
         vertex -1.580215e+04 2.518663e+03 -6.776264e-18
      endloop
   endfacet
   facet normal -7.727369e-01 6.347265e-01 0.000000e+00
      outer loop
         vertex -1.580270e+04 2.518111e+03 2.000000e-02
         vertex -1.580245e+04 2.518414e+03 2.000000e-02
         vertex -1.580270e+04 2.518111e+03 -6.776264e-18
      endloop
   endfacet
   facet normal -7.727369e-01 6.347265e-01 0.000000e+00
      outer loop
         vertex -1.580270e+04 2.518111e+03 -6.776264e-18
         vertex -1.580245e+04 2.518414e+03 2.000000e-02
         vertex -1.580245e+04 2.518414e+03 -6.776264e-18
      endloop
   endfacet
   facet normal -8.818140e-01 4.715973e-01 0.000000e+00
      outer loop
         vertex -1.580289e+04 2.517765e+03 2.000000e-02
         vertex -1.580270e+04 2.518111e+03 2.000000e-02
         vertex -1.580289e+04 2.517765e+03 0.000000e+00
      endloop
   endfacet
   facet normal -8.818140e-01 4.715973e-01 0.000000e+00
      outer loop
         vertex -1.580289e+04 2.517765e+03 0.000000e+00
         vertex -1.580270e+04 2.518111e+03 2.000000e-02
         vertex -1.580270e+04 2.518111e+03 0.000000e+00
      endloop
   endfacet
   facet normal -9.564601e-01 2.918632e-01 0.000000e+00
      outer loop
         vertex -1.580300e+04 2.517390e+03 2.000000e-02
         vertex -1.580289e+04 2.517765e+03 2.000000e-02
         vertex -1.580300e+04 2.517390e+03 -6.776264e-18
      endloop
   endfacet
   facet normal -9.564601e-01 2.918632e-01 0.000000e+00
      outer loop
         vertex -1.580300e+04 2.517390e+03 -6.776264e-18
         vertex -1.580289e+04 2.517765e+03 2.000000e-02
         vertex -1.580289e+04 2.517765e+03 -6.776264e-18
      endloop
   endfacet
   facet normal -9.954845e-01 9.492395e-02 0.000000e+00
      outer loop
         vertex -1.580304e+04 2.517000e+03 2.000000e-02
         vertex -1.580300e+04 2.517390e+03 2.000000e-02
         vertex -1.580304e+04 2.517000e+03 6.776264e-18
      endloop
   endfacet
   facet normal -9.954845e-01 9.492395e-02 0.000000e+00
      outer loop
         vertex -1.580304e+04 2.517000e+03 6.776264e-18
         vertex -1.580300e+04 2.517390e+03 2.000000e-02
         vertex -1.580300e+04 2.517390e+03 6.776264e-18
      endloop
   endfacet
   facet normal -9.954845e-01 -9.492395e-02 -0.000000e+00
      outer loop
         vertex -1.580300e+04 2.516610e+03 2.000000e-02
         vertex -1.580304e+04 2.517000e+03 2.000000e-02
         vertex -1.580300e+04 2.516610e+03 6.776264e-18
      endloop
   endfacet
   facet normal -9.954845e-01 -9.492395e-02 0.000000e+00
      outer loop
         vertex -1.580300e+04 2.516610e+03 6.776264e-18
         vertex -1.580304e+04 2.517000e+03 2.000000e-02
         vertex -1.580304e+04 2.517000e+03 6.776264e-18
      endloop
   endfacet
   facet normal -9.564082e-01 -2.920330e-01 -0.000000e+00
      outer loop
         vertex -1.580289e+04 2.516235e+03 2.000000e-02
         vertex -1.580300e+04 2.516610e+03 2.000000e-02
         vertex -1.580289e+04 2.516235e+03 -6.776264e-18
      endloop
   endfacet
   facet normal -9.564082e-01 -2.920330e-01 0.000000e+00
      outer loop
         vertex -1.580289e+04 2.516235e+03 -6.776264e-18
         vertex -1.580300e+04 2.516610e+03 2.000000e-02
         vertex -1.580300e+04 2.516610e+03 -6.776264e-18
      endloop
   endfacet
   facet normal -8.819491e-01 -4.713447e-01 -0.000000e+00
      outer loop
         vertex -1.580270e+04 2.515889e+03 2.000000e-02
         vertex -1.580289e+04 2.516235e+03 2.000000e-02
         vertex -1.580270e+04 2.515889e+03 0.000000e+00
      endloop
   endfacet
   facet normal -8.819491e-01 -4.713447e-01 0.000000e+00
      outer loop
         vertex -1.580270e+04 2.515889e+03 0.000000e+00
         vertex -1.580289e+04 2.516235e+03 2.000000e-02
         vertex -1.580289e+04 2.516235e+03 0.000000e+00
      endloop
   endfacet
   facet normal -7.727369e-01 -6.347265e-01 -0.000000e+00
      outer loop
         vertex -1.580245e+04 2.515586e+03 2.000000e-02
         vertex -1.580270e+04 2.515889e+03 2.000000e-02
         vertex -1.580245e+04 2.515586e+03 -6.776264e-18
      endloop
   endfacet
   facet normal -7.727369e-01 -6.347265e-01 0.000000e+00
      outer loop
         vertex -1.580245e+04 2.515586e+03 -6.776264e-18
         vertex -1.580270e+04 2.515889e+03 2.000000e-02
         vertex -1.580270e+04 2.515889e+03 -6.776264e-18
      endloop
   endfacet
   facet normal -6.344284e-01 -7.729817e-01 -0.000000e+00
      outer loop
         vertex -1.580215e+04 2.515337e+03 2.000000e-02
         vertex -1.580245e+04 2.515586e+03 2.000000e-02
         vertex -1.580215e+04 2.515337e+03 -6.776264e-18
      endloop
   endfacet
   facet normal -6.344284e-01 -7.729817e-01 0.000000e+00
      outer loop
         vertex -1.580215e+04 2.515337e+03 -6.776264e-18
         vertex -1.580245e+04 2.515586e+03 2.000000e-02
         vertex -1.580245e+04 2.515586e+03 -6.776264e-18
      endloop
   endfacet
   facet normal -4.723565e-01 -8.814076e-01 -0.000000e+00
      outer loop
         vertex -1.580180e+04 2.515152e+03 2.000000e-02
         vertex -1.580215e+04 2.515337e+03 2.000000e-02
         vertex -1.580180e+04 2.515152e+03 0.000000e+00
      endloop
   endfacet
   facet normal -4.723565e-01 -8.814076e-01 0.000000e+00
      outer loop
         vertex -1.580180e+04 2.515152e+03 0.000000e+00
         vertex -1.580215e+04 2.515337e+03 2.000000e-02
         vertex -1.580215e+04 2.515337e+03 0.000000e+00
      endloop
   endfacet
   facet normal -2.902433e-01 -9.569529e-01 -0.000000e+00
      outer loop
         vertex -1.580143e+04 2.515038e+03 2.000000e-02
         vertex -1.580180e+04 2.515152e+03 2.000000e-02
         vertex -1.580143e+04 2.515038e+03 -6.776264e-18
      endloop
   endfacet
   facet normal -2.902433e-01 -9.569529e-01 0.000000e+00
      outer loop
         vertex -1.580143e+04 2.515038e+03 -6.776264e-18
         vertex -1.580180e+04 2.515152e+03 2.000000e-02
         vertex -1.580180e+04 2.515152e+03 -6.776264e-18
      endloop
   endfacet
   facet normal -9.673249e-02 -9.953104e-01 -0.000000e+00
      outer loop
         vertex -1.580104e+04 2.515000e+03 2.000000e-02
         vertex -1.580143e+04 2.515038e+03 2.000000e-02
         vertex -1.580104e+04 2.515000e+03 -6.776264e-18
      endloop
   endfacet
   facet normal -9.673249e-02 -9.953104e-01 0.000000e+00
      outer loop
         vertex -1.580104e+04 2.515000e+03 -6.776264e-18
         vertex -1.580143e+04 2.515038e+03 2.000000e-02
         vertex -1.580143e+04 2.515038e+03 -6.776264e-18
      endloop
   endfacet
   facet normal 0.000000e+00 -0.000000e+00 1.000000e+00
      outer loop
         vertex -1.579200e+04 2.516000e+03 2.000000e-02
         vertex -1.579200e+04 2.518000e+03 2.000000e-02
         vertex -1.579932e+04 2.516000e+03 2.000000e-02
      endloop
   endfacet
   facet normal 0.000000e+00 0.000000e+00 1.000000e+00
      outer loop
         vertex -1.579932e+04 2.516000e+03 2.000000e-02
         vertex -1.579200e+04 2.518000e+03 2.000000e-02
         vertex -1.579932e+04 2.518000e+03 2.000000e-02
      endloop
   endfacet
   facet normal 0.000000e+00 -0.000000e+00 1.000000e+00
      outer loop
         vertex -1.579932e+04 2.516000e+03 2.000000e-02
         vertex -1.579932e+04 2.518000e+03 2.000000e-02
         vertex -1.579938e+04 2.518111e+03 2.000000e-02
      endloop
   endfacet
   facet normal 0.000000e+00 0.000000e+00 1.000000e+00
      outer loop
         vertex -1.580304e+04 2.517000e+03 2.000000e-02
         vertex -1.580300e+04 2.516610e+03 2.000000e-02
         vertex -1.580289e+04 2.516235e+03 2.000000e-02
      endloop
   endfacet
   facet normal 0.000000e+00 -0.000000e+00 1.000000e+00
      outer loop
         vertex -1.580065e+04 2.515038e+03 2.000000e-02
         vertex -1.580027e+04 2.515152e+03 2.000000e-02
         vertex -1.580104e+04 2.519000e+03 2.000000e-02
      endloop
   endfacet
   facet normal 0.000000e+00 0.000000e+00 1.000000e+00
      outer loop
         vertex -1.580104e+04 2.519000e+03 2.000000e-02
         vertex -1.580027e+04 2.515152e+03 2.000000e-02
         vertex -1.579993e+04 2.515337e+03 2.000000e-02
      endloop
   endfacet
   facet normal 0.000000e+00 0.000000e+00 1.000000e+00
      outer loop
         vertex -1.580104e+04 2.519000e+03 2.000000e-02
         vertex -1.579993e+04 2.515337e+03 2.000000e-02
         vertex -1.579963e+04 2.515586e+03 2.000000e-02
      endloop
   endfacet
   facet normal 0.000000e+00 0.000000e+00 1.000000e+00
      outer loop
         vertex -1.579938e+04 2.518111e+03 2.000000e-02
         vertex -1.579963e+04 2.518414e+03 2.000000e-02
         vertex -1.579932e+04 2.516000e+03 2.000000e-02
      endloop
   endfacet
   facet normal 0.000000e+00 0.000000e+00 1.000000e+00
      outer loop
         vertex -1.579932e+04 2.516000e+03 2.000000e-02
         vertex -1.579963e+04 2.518414e+03 2.000000e-02
         vertex -1.579993e+04 2.518663e+03 2.000000e-02
      endloop
   endfacet
   facet normal 0.000000e+00 0.000000e+00 1.000000e+00
      outer loop
         vertex -1.579932e+04 2.516000e+03 2.000000e-02
         vertex -1.579993e+04 2.518663e+03 2.000000e-02
         vertex -1.580027e+04 2.518848e+03 2.000000e-02
      endloop
   endfacet
   facet normal 0.000000e+00 -0.000000e+00 1.000000e+00
      outer loop
         vertex -1.579963e+04 2.515586e+03 2.000000e-02
         vertex -1.579938e+04 2.515889e+03 2.000000e-02
         vertex -1.580104e+04 2.519000e+03 2.000000e-02
      endloop
   endfacet
   facet normal 0.000000e+00 0.000000e+00 1.000000e+00
      outer loop
         vertex -1.580104e+04 2.519000e+03 2.000000e-02
         vertex -1.579938e+04 2.515889e+03 2.000000e-02
         vertex -1.579932e+04 2.516000e+03 2.000000e-02
      endloop
   endfacet
   facet normal 0.000000e+00 0.000000e+00 1.000000e+00
      outer loop
         vertex -1.580104e+04 2.519000e+03 2.000000e-02
         vertex -1.579932e+04 2.516000e+03 2.000000e-02
         vertex -1.580065e+04 2.518962e+03 2.000000e-02
      endloop
   endfacet
   facet normal 0.000000e+00 0.000000e+00 1.000000e+00
      outer loop
         vertex -1.580065e+04 2.518962e+03 2.000000e-02
         vertex -1.579932e+04 2.516000e+03 2.000000e-02
         vertex -1.580027e+04 2.518848e+03 2.000000e-02
      endloop
   endfacet
   facet normal 0.000000e+00 0.000000e+00 1.000000e+00
      outer loop
         vertex -1.580180e+04 2.518848e+03 2.000000e-02
         vertex -1.580215e+04 2.518663e+03 2.000000e-02
         vertex -1.580104e+04 2.515000e+03 2.000000e-02
      endloop
   endfacet
   facet normal 0.000000e+00 0.000000e+00 1.000000e+00
      outer loop
         vertex -1.580104e+04 2.515000e+03 2.000000e-02
         vertex -1.580215e+04 2.518663e+03 2.000000e-02
         vertex -1.580245e+04 2.518414e+03 2.000000e-02
      endloop
   endfacet
   facet normal 0.000000e+00 0.000000e+00 1.000000e+00
      outer loop
         vertex -1.580104e+04 2.515000e+03 2.000000e-02
         vertex -1.580245e+04 2.518414e+03 2.000000e-02
         vertex -1.580270e+04 2.518111e+03 2.000000e-02
      endloop
   endfacet
   facet normal 0.000000e+00 0.000000e+00 1.000000e+00
      outer loop
         vertex -1.580270e+04 2.518111e+03 2.000000e-02
         vertex -1.580289e+04 2.517765e+03 2.000000e-02
         vertex -1.580104e+04 2.515000e+03 2.000000e-02
      endloop
   endfacet
   facet normal 0.000000e+00 0.000000e+00 1.000000e+00
      outer loop
         vertex -1.580104e+04 2.515000e+03 2.000000e-02
         vertex -1.580289e+04 2.517765e+03 2.000000e-02
         vertex -1.580300e+04 2.517390e+03 2.000000e-02
      endloop
   endfacet
   facet normal 0.000000e+00 0.000000e+00 1.000000e+00
      outer loop
         vertex -1.580104e+04 2.515000e+03 2.000000e-02
         vertex -1.580300e+04 2.517390e+03 2.000000e-02
         vertex -1.580304e+04 2.517000e+03 2.000000e-02
      endloop
   endfacet
   facet normal -0.000000e+00 -0.000000e+00 1.000000e+00
      outer loop
         vertex -1.580289e+04 2.516235e+03 2.000000e-02
         vertex -1.580270e+04 2.515889e+03 2.000000e-02
         vertex -1.580304e+04 2.517000e+03 2.000000e-02
      endloop
   endfacet
   facet normal 0.000000e+00 0.000000e+00 1.000000e+00
      outer loop
         vertex -1.580304e+04 2.517000e+03 2.000000e-02
         vertex -1.580270e+04 2.515889e+03 2.000000e-02
         vertex -1.580245e+04 2.515586e+03 2.000000e-02
      endloop
   endfacet
   facet normal 0.000000e+00 0.000000e+00 1.000000e+00
      outer loop
         vertex -1.580304e+04 2.517000e+03 2.000000e-02
         vertex -1.580245e+04 2.515586e+03 2.000000e-02
         vertex -1.580215e+04 2.515337e+03 2.000000e-02
      endloop
   endfacet
   facet normal 0.000000e+00 0.000000e+00 1.000000e+00
      outer loop
         vertex -1.580065e+04 2.515038e+03 2.000000e-02
         vertex -1.580104e+04 2.519000e+03 2.000000e-02
         vertex -1.580104e+04 2.515000e+03 2.000000e-02
      endloop
   endfacet
   facet normal 0.000000e+00 -0.000000e+00 1.000000e+00
      outer loop
         vertex -1.580104e+04 2.515000e+03 2.000000e-02
         vertex -1.580104e+04 2.519000e+03 2.000000e-02
         vertex -1.580143e+04 2.518962e+03 2.000000e-02
      endloop
   endfacet
   facet normal 0.000000e+00 0.000000e+00 1.000000e+00
      outer loop
         vertex -1.580104e+04 2.515000e+03 2.000000e-02
         vertex -1.580143e+04 2.518962e+03 2.000000e-02
         vertex -1.580180e+04 2.518848e+03 2.000000e-02
      endloop
   endfacet
   facet normal -0.000000e+00 -0.000000e+00 1.000000e+00
      outer loop
         vertex -1.580215e+04 2.515337e+03 2.000000e-02
         vertex -1.580180e+04 2.515152e+03 2.000000e-02
         vertex -1.580304e+04 2.517000e+03 2.000000e-02
      endloop
   endfacet
   facet normal 0.000000e+00 0.000000e+00 1.000000e+00
      outer loop
         vertex -1.580304e+04 2.517000e+03 2.000000e-02
         vertex -1.580180e+04 2.515152e+03 2.000000e-02
         vertex -1.580143e+04 2.515038e+03 2.000000e-02
      endloop
   endfacet
   facet normal 0.000000e+00 0.000000e+00 1.000000e+00
      outer loop
         vertex -1.580304e+04 2.517000e+03 2.000000e-02
         vertex -1.580143e+04 2.515038e+03 2.000000e-02
         vertex -1.580104e+04 2.515000e+03 2.000000e-02
      endloop
   endfacet
   facet normal -0.000000e+00 -0.000000e+00 -1.000000e+00
      outer loop
         vertex -1.579200e+04 2.518000e+03 0.000000e+00
         vertex -1.579200e+04 2.516000e+03 0.000000e+00
         vertex -1.579932e+04 2.518000e+03 0.000000e+00
      endloop
   endfacet
   facet normal 0.000000e+00 0.000000e+00 -1.000000e+00
      outer loop
         vertex -1.579932e+04 2.518000e+03 0.000000e+00
         vertex -1.579200e+04 2.516000e+03 0.000000e+00
         vertex -1.579932e+04 2.516000e+03 0.000000e+00
      endloop
   endfacet
   facet normal -0.000000e+00 -0.000000e+00 -1.000000e+00
      outer loop
         vertex -1.579932e+04 2.518000e+03 0.000000e+00
         vertex -1.579932e+04 2.516000e+03 0.000000e+00
         vertex -1.579938e+04 2.518111e+03 0.000000e+00
      endloop
   endfacet
   facet normal 0.000000e+00 0.000000e+00 -1.000000e+00
      outer loop
         vertex -1.580215e+04 2.515337e+03 0.000000e+00
         vertex -1.580245e+04 2.515586e+03 0.000000e+00
         vertex -1.580304e+04 2.517000e+03 0.000000e+00
      endloop
   endfacet
   facet normal -0.000000e+00 -0.000000e+00 -1.000000e+00
      outer loop
         vertex -1.580027e+04 2.518848e+03 0.000000e+00
         vertex -1.579932e+04 2.516000e+03 0.000000e+00
         vertex -1.580065e+04 2.518962e+03 0.000000e+00
      endloop
   endfacet
   facet normal -0.000000e+00 -0.000000e+00 -1.000000e+00
      outer loop
         vertex -1.580065e+04 2.518962e+03 0.000000e+00
         vertex -1.579932e+04 2.516000e+03 0.000000e+00
         vertex -1.580104e+04 2.519000e+03 0.000000e+00
      endloop
   endfacet
   facet normal 0.000000e+00 0.000000e+00 -1.000000e+00
      outer loop
         vertex -1.580027e+04 2.518848e+03 0.000000e+00
         vertex -1.579993e+04 2.518663e+03 0.000000e+00
         vertex -1.579932e+04 2.516000e+03 0.000000e+00
      endloop
   endfacet
   facet normal 0.000000e+00 0.000000e+00 -1.000000e+00
      outer loop
         vertex -1.579932e+04 2.516000e+03 0.000000e+00
         vertex -1.579993e+04 2.518663e+03 0.000000e+00
         vertex -1.579963e+04 2.518414e+03 0.000000e+00
      endloop
   endfacet
   facet normal 0.000000e+00 0.000000e+00 -1.000000e+00
      outer loop
         vertex -1.579932e+04 2.516000e+03 0.000000e+00
         vertex -1.579963e+04 2.518414e+03 0.000000e+00
         vertex -1.579938e+04 2.518111e+03 0.000000e+00
      endloop
   endfacet
   facet normal -0.000000e+00 0.000000e+00 -1.000000e+00
      outer loop
         vertex -1.579932e+04 2.516000e+03 0.000000e+00
         vertex -1.579938e+04 2.515889e+03 0.000000e+00
         vertex -1.580104e+04 2.519000e+03 0.000000e+00
      endloop
   endfacet
   facet normal 0.000000e+00 0.000000e+00 -1.000000e+00
      outer loop
         vertex -1.580104e+04 2.519000e+03 0.000000e+00
         vertex -1.579938e+04 2.515889e+03 0.000000e+00
         vertex -1.579963e+04 2.515586e+03 0.000000e+00
      endloop
   endfacet
   facet normal 0.000000e+00 0.000000e+00 -1.000000e+00
      outer loop
         vertex -1.580104e+04 2.519000e+03 0.000000e+00
         vertex -1.579963e+04 2.515586e+03 0.000000e+00
         vertex -1.579993e+04 2.515337e+03 0.000000e+00
      endloop
   endfacet
   facet normal -0.000000e+00 0.000000e+00 -1.000000e+00
      outer loop
         vertex -1.579993e+04 2.515337e+03 0.000000e+00
         vertex -1.580027e+04 2.515152e+03 0.000000e+00
         vertex -1.580104e+04 2.519000e+03 0.000000e+00
      endloop
   endfacet
   facet normal 0.000000e+00 0.000000e+00 -1.000000e+00
      outer loop
         vertex -1.580104e+04 2.519000e+03 0.000000e+00
         vertex -1.580027e+04 2.515152e+03 0.000000e+00
         vertex -1.580065e+04 2.515038e+03 0.000000e+00
      endloop
   endfacet
   facet normal 0.000000e+00 0.000000e+00 -1.000000e+00
      outer loop
         vertex -1.580104e+04 2.519000e+03 0.000000e+00
         vertex -1.580065e+04 2.515038e+03 0.000000e+00
         vertex -1.580104e+04 2.515000e+03 0.000000e+00
      endloop
   endfacet
   facet normal 0.000000e+00 0.000000e+00 -1.000000e+00
      outer loop
         vertex -1.580215e+04 2.515337e+03 0.000000e+00
         vertex -1.580304e+04 2.517000e+03 0.000000e+00
         vertex -1.580180e+04 2.515152e+03 0.000000e+00
      endloop
   endfacet
   facet normal 0.000000e+00 0.000000e+00 -1.000000e+00
      outer loop
         vertex -1.580300e+04 2.517390e+03 0.000000e+00
         vertex -1.580289e+04 2.517765e+03 0.000000e+00
         vertex -1.580104e+04 2.515000e+03 0.000000e+00
      endloop
   endfacet
   facet normal 0.000000e+00 0.000000e+00 -1.000000e+00
      outer loop
         vertex -1.580245e+04 2.515586e+03 0.000000e+00
         vertex -1.580270e+04 2.515889e+03 0.000000e+00
         vertex -1.580304e+04 2.517000e+03 0.000000e+00
      endloop
   endfacet
   facet normal 0.000000e+00 0.000000e+00 -1.000000e+00
      outer loop
         vertex -1.580304e+04 2.517000e+03 0.000000e+00
         vertex -1.580270e+04 2.515889e+03 0.000000e+00
         vertex -1.580289e+04 2.516235e+03 0.000000e+00
      endloop
   endfacet
   facet normal 0.000000e+00 0.000000e+00 -1.000000e+00
      outer loop
         vertex -1.580304e+04 2.517000e+03 0.000000e+00
         vertex -1.580289e+04 2.516235e+03 0.000000e+00
         vertex -1.580300e+04 2.516610e+03 0.000000e+00
      endloop
   endfacet
   facet normal 0.000000e+00 0.000000e+00 -1.000000e+00
      outer loop
         vertex -1.580289e+04 2.517765e+03 0.000000e+00
         vertex -1.580270e+04 2.518111e+03 0.000000e+00
         vertex -1.580104e+04 2.515000e+03 0.000000e+00
      endloop
   endfacet
   facet normal 0.000000e+00 0.000000e+00 -1.000000e+00
      outer loop
         vertex -1.580104e+04 2.515000e+03 0.000000e+00
         vertex -1.580270e+04 2.518111e+03 0.000000e+00
         vertex -1.580245e+04 2.518414e+03 0.000000e+00
      endloop
   endfacet
   facet normal 0.000000e+00 0.000000e+00 -1.000000e+00
      outer loop
         vertex -1.580104e+04 2.515000e+03 0.000000e+00
         vertex -1.580245e+04 2.518414e+03 0.000000e+00
         vertex -1.580215e+04 2.518663e+03 0.000000e+00
      endloop
   endfacet
   facet normal 0.000000e+00 -0.000000e+00 -1.000000e+00
      outer loop
         vertex -1.580300e+04 2.517390e+03 0.000000e+00
         vertex -1.580104e+04 2.515000e+03 0.000000e+00
         vertex -1.580304e+04 2.517000e+03 0.000000e+00
      endloop
   endfacet
   facet normal 0.000000e+00 0.000000e+00 -1.000000e+00
      outer loop
         vertex -1.580304e+04 2.517000e+03 0.000000e+00
         vertex -1.580104e+04 2.515000e+03 0.000000e+00
         vertex -1.580143e+04 2.515038e+03 0.000000e+00
      endloop
   endfacet
   facet normal 0.000000e+00 0.000000e+00 -1.000000e+00
      outer loop
         vertex -1.580304e+04 2.517000e+03 0.000000e+00
         vertex -1.580143e+04 2.515038e+03 0.000000e+00
         vertex -1.580180e+04 2.515152e+03 0.000000e+00
      endloop
   endfacet
   facet normal 0.000000e+00 0.000000e+00 -1.000000e+00
      outer loop
         vertex -1.580215e+04 2.518663e+03 0.000000e+00
         vertex -1.580180e+04 2.518848e+03 0.000000e+00
         vertex -1.580104e+04 2.515000e+03 0.000000e+00
      endloop
   endfacet
   facet normal 0.000000e+00 0.000000e+00 -1.000000e+00
      outer loop
         vertex -1.580104e+04 2.515000e+03 0.000000e+00
         vertex -1.580180e+04 2.518848e+03 0.000000e+00
         vertex -1.580143e+04 2.518962e+03 0.000000e+00
      endloop
   endfacet
   facet normal 0.000000e+00 0.000000e+00 -1.000000e+00
      outer loop
         vertex -1.580104e+04 2.515000e+03 0.000000e+00
         vertex -1.580143e+04 2.518962e+03 0.000000e+00
         vertex -1.580104e+04 2.519000e+03 0.000000e+00
      endloop
   endfacet
endsolid single_squat_BE2